G04 #@! TF.GenerationSoftware,KiCad,Pcbnew,9.0.1*
G04 #@! TF.CreationDate,2025-05-01T12:24:31+02:00*
G04 #@! TF.ProjectId,despertador,64657370-6572-4746-9164-6f722e6b6963,rev?*
G04 #@! TF.SameCoordinates,Original*
G04 #@! TF.FileFunction,Legend,Top*
G04 #@! TF.FilePolarity,Positive*
%FSLAX46Y46*%
G04 Gerber Fmt 4.6, Leading zero omitted, Abs format (unit mm)*
G04 Created by KiCad (PCBNEW 9.0.1) date 2025-05-01 12:24:31*
%MOMM*%
%LPD*%
G01*
G04 APERTURE LIST*
%ADD10C,0.100000*%
%ADD11C,0.150000*%
%ADD12C,0.250000*%
%ADD13C,0.120000*%
%ADD14C,1.000000*%
%ADD15C,0.300000*%
%ADD16C,0.400000*%
%ADD17R,1.350000X1.410000*%
%ADD18R,1.410000X1.350000*%
%ADD19R,1.380000X1.130000*%
%ADD20R,1.600000X1.600000*%
%ADD21C,1.600000*%
%ADD22C,1.520000*%
%ADD23R,1.700000X1.700000*%
%ADD24C,1.700000*%
%ADD25R,1.250000X0.700000*%
%ADD26C,1.550000*%
%ADD27O,0.630000X1.860000*%
%ADD28R,1.130000X1.380000*%
%ADD29R,2.200000X2.100000*%
%ADD30C,2.200000*%
%ADD31R,1.800000X1.800000*%
%ADD32O,1.800000X1.800000*%
%ADD33R,0.700000X1.250000*%
G04 APERTURE END LIST*
D10*
X119603884Y-93172419D02*
X119603884Y-92172419D01*
X119603884Y-92172419D02*
X119984836Y-92172419D01*
X119984836Y-92172419D02*
X120080074Y-92220038D01*
X120080074Y-92220038D02*
X120127693Y-92267657D01*
X120127693Y-92267657D02*
X120175312Y-92362895D01*
X120175312Y-92362895D02*
X120175312Y-92505752D01*
X120175312Y-92505752D02*
X120127693Y-92600990D01*
X120127693Y-92600990D02*
X120080074Y-92648609D01*
X120080074Y-92648609D02*
X119984836Y-92696228D01*
X119984836Y-92696228D02*
X119603884Y-92696228D01*
X120603884Y-93172419D02*
X120603884Y-92172419D01*
X121651502Y-93172419D02*
X121318169Y-92696228D01*
X121080074Y-93172419D02*
X121080074Y-92172419D01*
X121080074Y-92172419D02*
X121461026Y-92172419D01*
X121461026Y-92172419D02*
X121556264Y-92220038D01*
X121556264Y-92220038D02*
X121603883Y-92267657D01*
X121603883Y-92267657D02*
X121651502Y-92362895D01*
X121651502Y-92362895D02*
X121651502Y-92505752D01*
X121651502Y-92505752D02*
X121603883Y-92600990D01*
X121603883Y-92600990D02*
X121556264Y-92648609D01*
X121556264Y-92648609D02*
X121461026Y-92696228D01*
X121461026Y-92696228D02*
X121080074Y-92696228D01*
D11*
X107859580Y-97580600D02*
X107907200Y-97628219D01*
X107907200Y-97628219D02*
X107954819Y-97771076D01*
X107954819Y-97771076D02*
X107954819Y-97866314D01*
X107954819Y-97866314D02*
X107907200Y-98009171D01*
X107907200Y-98009171D02*
X107811961Y-98104409D01*
X107811961Y-98104409D02*
X107716723Y-98152028D01*
X107716723Y-98152028D02*
X107526247Y-98199647D01*
X107526247Y-98199647D02*
X107383390Y-98199647D01*
X107383390Y-98199647D02*
X107192914Y-98152028D01*
X107192914Y-98152028D02*
X107097676Y-98104409D01*
X107097676Y-98104409D02*
X107002438Y-98009171D01*
X107002438Y-98009171D02*
X106954819Y-97866314D01*
X106954819Y-97866314D02*
X106954819Y-97771076D01*
X106954819Y-97771076D02*
X107002438Y-97628219D01*
X107002438Y-97628219D02*
X107050057Y-97580600D01*
X106954819Y-96723457D02*
X106954819Y-96913933D01*
X106954819Y-96913933D02*
X107002438Y-97009171D01*
X107002438Y-97009171D02*
X107050057Y-97056790D01*
X107050057Y-97056790D02*
X107192914Y-97152028D01*
X107192914Y-97152028D02*
X107383390Y-97199647D01*
X107383390Y-97199647D02*
X107764342Y-97199647D01*
X107764342Y-97199647D02*
X107859580Y-97152028D01*
X107859580Y-97152028D02*
X107907200Y-97104409D01*
X107907200Y-97104409D02*
X107954819Y-97009171D01*
X107954819Y-97009171D02*
X107954819Y-96818695D01*
X107954819Y-96818695D02*
X107907200Y-96723457D01*
X107907200Y-96723457D02*
X107859580Y-96675838D01*
X107859580Y-96675838D02*
X107764342Y-96628219D01*
X107764342Y-96628219D02*
X107526247Y-96628219D01*
X107526247Y-96628219D02*
X107431009Y-96675838D01*
X107431009Y-96675838D02*
X107383390Y-96723457D01*
X107383390Y-96723457D02*
X107335771Y-96818695D01*
X107335771Y-96818695D02*
X107335771Y-97009171D01*
X107335771Y-97009171D02*
X107383390Y-97104409D01*
X107383390Y-97104409D02*
X107431009Y-97152028D01*
X107431009Y-97152028D02*
X107526247Y-97199647D01*
X108543333Y-104369580D02*
X108495714Y-104417200D01*
X108495714Y-104417200D02*
X108352857Y-104464819D01*
X108352857Y-104464819D02*
X108257619Y-104464819D01*
X108257619Y-104464819D02*
X108114762Y-104417200D01*
X108114762Y-104417200D02*
X108019524Y-104321961D01*
X108019524Y-104321961D02*
X107971905Y-104226723D01*
X107971905Y-104226723D02*
X107924286Y-104036247D01*
X107924286Y-104036247D02*
X107924286Y-103893390D01*
X107924286Y-103893390D02*
X107971905Y-103702914D01*
X107971905Y-103702914D02*
X108019524Y-103607676D01*
X108019524Y-103607676D02*
X108114762Y-103512438D01*
X108114762Y-103512438D02*
X108257619Y-103464819D01*
X108257619Y-103464819D02*
X108352857Y-103464819D01*
X108352857Y-103464819D02*
X108495714Y-103512438D01*
X108495714Y-103512438D02*
X108543333Y-103560057D01*
X109448095Y-103464819D02*
X108971905Y-103464819D01*
X108971905Y-103464819D02*
X108924286Y-103941009D01*
X108924286Y-103941009D02*
X108971905Y-103893390D01*
X108971905Y-103893390D02*
X109067143Y-103845771D01*
X109067143Y-103845771D02*
X109305238Y-103845771D01*
X109305238Y-103845771D02*
X109400476Y-103893390D01*
X109400476Y-103893390D02*
X109448095Y-103941009D01*
X109448095Y-103941009D02*
X109495714Y-104036247D01*
X109495714Y-104036247D02*
X109495714Y-104274342D01*
X109495714Y-104274342D02*
X109448095Y-104369580D01*
X109448095Y-104369580D02*
X109400476Y-104417200D01*
X109400476Y-104417200D02*
X109305238Y-104464819D01*
X109305238Y-104464819D02*
X109067143Y-104464819D01*
X109067143Y-104464819D02*
X108971905Y-104417200D01*
X108971905Y-104417200D02*
X108924286Y-104369580D01*
X103773333Y-96869580D02*
X103725714Y-96917200D01*
X103725714Y-96917200D02*
X103582857Y-96964819D01*
X103582857Y-96964819D02*
X103487619Y-96964819D01*
X103487619Y-96964819D02*
X103344762Y-96917200D01*
X103344762Y-96917200D02*
X103249524Y-96821961D01*
X103249524Y-96821961D02*
X103201905Y-96726723D01*
X103201905Y-96726723D02*
X103154286Y-96536247D01*
X103154286Y-96536247D02*
X103154286Y-96393390D01*
X103154286Y-96393390D02*
X103201905Y-96202914D01*
X103201905Y-96202914D02*
X103249524Y-96107676D01*
X103249524Y-96107676D02*
X103344762Y-96012438D01*
X103344762Y-96012438D02*
X103487619Y-95964819D01*
X103487619Y-95964819D02*
X103582857Y-95964819D01*
X103582857Y-95964819D02*
X103725714Y-96012438D01*
X103725714Y-96012438D02*
X103773333Y-96060057D01*
X104154286Y-96060057D02*
X104201905Y-96012438D01*
X104201905Y-96012438D02*
X104297143Y-95964819D01*
X104297143Y-95964819D02*
X104535238Y-95964819D01*
X104535238Y-95964819D02*
X104630476Y-96012438D01*
X104630476Y-96012438D02*
X104678095Y-96060057D01*
X104678095Y-96060057D02*
X104725714Y-96155295D01*
X104725714Y-96155295D02*
X104725714Y-96250533D01*
X104725714Y-96250533D02*
X104678095Y-96393390D01*
X104678095Y-96393390D02*
X104106667Y-96964819D01*
X104106667Y-96964819D02*
X104725714Y-96964819D01*
X98083333Y-96869580D02*
X98035714Y-96917200D01*
X98035714Y-96917200D02*
X97892857Y-96964819D01*
X97892857Y-96964819D02*
X97797619Y-96964819D01*
X97797619Y-96964819D02*
X97654762Y-96917200D01*
X97654762Y-96917200D02*
X97559524Y-96821961D01*
X97559524Y-96821961D02*
X97511905Y-96726723D01*
X97511905Y-96726723D02*
X97464286Y-96536247D01*
X97464286Y-96536247D02*
X97464286Y-96393390D01*
X97464286Y-96393390D02*
X97511905Y-96202914D01*
X97511905Y-96202914D02*
X97559524Y-96107676D01*
X97559524Y-96107676D02*
X97654762Y-96012438D01*
X97654762Y-96012438D02*
X97797619Y-95964819D01*
X97797619Y-95964819D02*
X97892857Y-95964819D01*
X97892857Y-95964819D02*
X98035714Y-96012438D01*
X98035714Y-96012438D02*
X98083333Y-96060057D01*
X98940476Y-96298152D02*
X98940476Y-96964819D01*
X98702381Y-95917200D02*
X98464286Y-96631485D01*
X98464286Y-96631485D02*
X99083333Y-96631485D01*
X93859580Y-104166666D02*
X93907200Y-104214285D01*
X93907200Y-104214285D02*
X93954819Y-104357142D01*
X93954819Y-104357142D02*
X93954819Y-104452380D01*
X93954819Y-104452380D02*
X93907200Y-104595237D01*
X93907200Y-104595237D02*
X93811961Y-104690475D01*
X93811961Y-104690475D02*
X93716723Y-104738094D01*
X93716723Y-104738094D02*
X93526247Y-104785713D01*
X93526247Y-104785713D02*
X93383390Y-104785713D01*
X93383390Y-104785713D02*
X93192914Y-104738094D01*
X93192914Y-104738094D02*
X93097676Y-104690475D01*
X93097676Y-104690475D02*
X93002438Y-104595237D01*
X93002438Y-104595237D02*
X92954819Y-104452380D01*
X92954819Y-104452380D02*
X92954819Y-104357142D01*
X92954819Y-104357142D02*
X93002438Y-104214285D01*
X93002438Y-104214285D02*
X93050057Y-104166666D01*
X93954819Y-103214285D02*
X93954819Y-103785713D01*
X93954819Y-103499999D02*
X92954819Y-103499999D01*
X92954819Y-103499999D02*
X93097676Y-103595237D01*
X93097676Y-103595237D02*
X93192914Y-103690475D01*
X93192914Y-103690475D02*
X93240533Y-103785713D01*
X149779819Y-136916666D02*
X149303628Y-137249999D01*
X149779819Y-137488094D02*
X148779819Y-137488094D01*
X148779819Y-137488094D02*
X148779819Y-137107142D01*
X148779819Y-137107142D02*
X148827438Y-137011904D01*
X148827438Y-137011904D02*
X148875057Y-136964285D01*
X148875057Y-136964285D02*
X148970295Y-136916666D01*
X148970295Y-136916666D02*
X149113152Y-136916666D01*
X149113152Y-136916666D02*
X149208390Y-136964285D01*
X149208390Y-136964285D02*
X149256009Y-137011904D01*
X149256009Y-137011904D02*
X149303628Y-137107142D01*
X149303628Y-137107142D02*
X149303628Y-137488094D01*
X149208390Y-136345237D02*
X149160771Y-136440475D01*
X149160771Y-136440475D02*
X149113152Y-136488094D01*
X149113152Y-136488094D02*
X149017914Y-136535713D01*
X149017914Y-136535713D02*
X148970295Y-136535713D01*
X148970295Y-136535713D02*
X148875057Y-136488094D01*
X148875057Y-136488094D02*
X148827438Y-136440475D01*
X148827438Y-136440475D02*
X148779819Y-136345237D01*
X148779819Y-136345237D02*
X148779819Y-136154761D01*
X148779819Y-136154761D02*
X148827438Y-136059523D01*
X148827438Y-136059523D02*
X148875057Y-136011904D01*
X148875057Y-136011904D02*
X148970295Y-135964285D01*
X148970295Y-135964285D02*
X149017914Y-135964285D01*
X149017914Y-135964285D02*
X149113152Y-136011904D01*
X149113152Y-136011904D02*
X149160771Y-136059523D01*
X149160771Y-136059523D02*
X149208390Y-136154761D01*
X149208390Y-136154761D02*
X149208390Y-136345237D01*
X149208390Y-136345237D02*
X149256009Y-136440475D01*
X149256009Y-136440475D02*
X149303628Y-136488094D01*
X149303628Y-136488094D02*
X149398866Y-136535713D01*
X149398866Y-136535713D02*
X149589342Y-136535713D01*
X149589342Y-136535713D02*
X149684580Y-136488094D01*
X149684580Y-136488094D02*
X149732200Y-136440475D01*
X149732200Y-136440475D02*
X149779819Y-136345237D01*
X149779819Y-136345237D02*
X149779819Y-136154761D01*
X149779819Y-136154761D02*
X149732200Y-136059523D01*
X149732200Y-136059523D02*
X149684580Y-136011904D01*
X149684580Y-136011904D02*
X149589342Y-135964285D01*
X149589342Y-135964285D02*
X149398866Y-135964285D01*
X149398866Y-135964285D02*
X149303628Y-136011904D01*
X149303628Y-136011904D02*
X149256009Y-136059523D01*
X149256009Y-136059523D02*
X149208390Y-136154761D01*
X165866667Y-99907200D02*
X166009524Y-99954819D01*
X166009524Y-99954819D02*
X166247619Y-99954819D01*
X166247619Y-99954819D02*
X166342857Y-99907200D01*
X166342857Y-99907200D02*
X166390476Y-99859580D01*
X166390476Y-99859580D02*
X166438095Y-99764342D01*
X166438095Y-99764342D02*
X166438095Y-99669104D01*
X166438095Y-99669104D02*
X166390476Y-99573866D01*
X166390476Y-99573866D02*
X166342857Y-99526247D01*
X166342857Y-99526247D02*
X166247619Y-99478628D01*
X166247619Y-99478628D02*
X166057143Y-99431009D01*
X166057143Y-99431009D02*
X165961905Y-99383390D01*
X165961905Y-99383390D02*
X165914286Y-99335771D01*
X165914286Y-99335771D02*
X165866667Y-99240533D01*
X165866667Y-99240533D02*
X165866667Y-99145295D01*
X165866667Y-99145295D02*
X165914286Y-99050057D01*
X165914286Y-99050057D02*
X165961905Y-99002438D01*
X165961905Y-99002438D02*
X166057143Y-98954819D01*
X166057143Y-98954819D02*
X166295238Y-98954819D01*
X166295238Y-98954819D02*
X166438095Y-99002438D01*
X166771429Y-98954819D02*
X167009524Y-99954819D01*
X167009524Y-99954819D02*
X167200000Y-99240533D01*
X167200000Y-99240533D02*
X167390476Y-99954819D01*
X167390476Y-99954819D02*
X167628572Y-98954819D01*
X167914286Y-98954819D02*
X168533333Y-98954819D01*
X168533333Y-98954819D02*
X168200000Y-99335771D01*
X168200000Y-99335771D02*
X168342857Y-99335771D01*
X168342857Y-99335771D02*
X168438095Y-99383390D01*
X168438095Y-99383390D02*
X168485714Y-99431009D01*
X168485714Y-99431009D02*
X168533333Y-99526247D01*
X168533333Y-99526247D02*
X168533333Y-99764342D01*
X168533333Y-99764342D02*
X168485714Y-99859580D01*
X168485714Y-99859580D02*
X168438095Y-99907200D01*
X168438095Y-99907200D02*
X168342857Y-99954819D01*
X168342857Y-99954819D02*
X168057143Y-99954819D01*
X168057143Y-99954819D02*
X167961905Y-99907200D01*
X167961905Y-99907200D02*
X167914286Y-99859580D01*
X145404819Y-111916666D02*
X144928628Y-112249999D01*
X145404819Y-112488094D02*
X144404819Y-112488094D01*
X144404819Y-112488094D02*
X144404819Y-112107142D01*
X144404819Y-112107142D02*
X144452438Y-112011904D01*
X144452438Y-112011904D02*
X144500057Y-111964285D01*
X144500057Y-111964285D02*
X144595295Y-111916666D01*
X144595295Y-111916666D02*
X144738152Y-111916666D01*
X144738152Y-111916666D02*
X144833390Y-111964285D01*
X144833390Y-111964285D02*
X144881009Y-112011904D01*
X144881009Y-112011904D02*
X144928628Y-112107142D01*
X144928628Y-112107142D02*
X144928628Y-112488094D01*
X145404819Y-110964285D02*
X145404819Y-111535713D01*
X145404819Y-111249999D02*
X144404819Y-111249999D01*
X144404819Y-111249999D02*
X144547676Y-111345237D01*
X144547676Y-111345237D02*
X144642914Y-111440475D01*
X144642914Y-111440475D02*
X144690533Y-111535713D01*
X151316667Y-99907200D02*
X151459524Y-99954819D01*
X151459524Y-99954819D02*
X151697619Y-99954819D01*
X151697619Y-99954819D02*
X151792857Y-99907200D01*
X151792857Y-99907200D02*
X151840476Y-99859580D01*
X151840476Y-99859580D02*
X151888095Y-99764342D01*
X151888095Y-99764342D02*
X151888095Y-99669104D01*
X151888095Y-99669104D02*
X151840476Y-99573866D01*
X151840476Y-99573866D02*
X151792857Y-99526247D01*
X151792857Y-99526247D02*
X151697619Y-99478628D01*
X151697619Y-99478628D02*
X151507143Y-99431009D01*
X151507143Y-99431009D02*
X151411905Y-99383390D01*
X151411905Y-99383390D02*
X151364286Y-99335771D01*
X151364286Y-99335771D02*
X151316667Y-99240533D01*
X151316667Y-99240533D02*
X151316667Y-99145295D01*
X151316667Y-99145295D02*
X151364286Y-99050057D01*
X151364286Y-99050057D02*
X151411905Y-99002438D01*
X151411905Y-99002438D02*
X151507143Y-98954819D01*
X151507143Y-98954819D02*
X151745238Y-98954819D01*
X151745238Y-98954819D02*
X151888095Y-99002438D01*
X152221429Y-98954819D02*
X152459524Y-99954819D01*
X152459524Y-99954819D02*
X152650000Y-99240533D01*
X152650000Y-99240533D02*
X152840476Y-99954819D01*
X152840476Y-99954819D02*
X153078572Y-98954819D01*
X153411905Y-99050057D02*
X153459524Y-99002438D01*
X153459524Y-99002438D02*
X153554762Y-98954819D01*
X153554762Y-98954819D02*
X153792857Y-98954819D01*
X153792857Y-98954819D02*
X153888095Y-99002438D01*
X153888095Y-99002438D02*
X153935714Y-99050057D01*
X153935714Y-99050057D02*
X153983333Y-99145295D01*
X153983333Y-99145295D02*
X153983333Y-99240533D01*
X153983333Y-99240533D02*
X153935714Y-99383390D01*
X153935714Y-99383390D02*
X153364286Y-99954819D01*
X153364286Y-99954819D02*
X153983333Y-99954819D01*
X136766667Y-99907200D02*
X136909524Y-99954819D01*
X136909524Y-99954819D02*
X137147619Y-99954819D01*
X137147619Y-99954819D02*
X137242857Y-99907200D01*
X137242857Y-99907200D02*
X137290476Y-99859580D01*
X137290476Y-99859580D02*
X137338095Y-99764342D01*
X137338095Y-99764342D02*
X137338095Y-99669104D01*
X137338095Y-99669104D02*
X137290476Y-99573866D01*
X137290476Y-99573866D02*
X137242857Y-99526247D01*
X137242857Y-99526247D02*
X137147619Y-99478628D01*
X137147619Y-99478628D02*
X136957143Y-99431009D01*
X136957143Y-99431009D02*
X136861905Y-99383390D01*
X136861905Y-99383390D02*
X136814286Y-99335771D01*
X136814286Y-99335771D02*
X136766667Y-99240533D01*
X136766667Y-99240533D02*
X136766667Y-99145295D01*
X136766667Y-99145295D02*
X136814286Y-99050057D01*
X136814286Y-99050057D02*
X136861905Y-99002438D01*
X136861905Y-99002438D02*
X136957143Y-98954819D01*
X136957143Y-98954819D02*
X137195238Y-98954819D01*
X137195238Y-98954819D02*
X137338095Y-99002438D01*
X137671429Y-98954819D02*
X137909524Y-99954819D01*
X137909524Y-99954819D02*
X138100000Y-99240533D01*
X138100000Y-99240533D02*
X138290476Y-99954819D01*
X138290476Y-99954819D02*
X138528572Y-98954819D01*
X139433333Y-99954819D02*
X138861905Y-99954819D01*
X139147619Y-99954819D02*
X139147619Y-98954819D01*
X139147619Y-98954819D02*
X139052381Y-99097676D01*
X139052381Y-99097676D02*
X138957143Y-99192914D01*
X138957143Y-99192914D02*
X138861905Y-99240533D01*
X149704819Y-111916666D02*
X149228628Y-112249999D01*
X149704819Y-112488094D02*
X148704819Y-112488094D01*
X148704819Y-112488094D02*
X148704819Y-112107142D01*
X148704819Y-112107142D02*
X148752438Y-112011904D01*
X148752438Y-112011904D02*
X148800057Y-111964285D01*
X148800057Y-111964285D02*
X148895295Y-111916666D01*
X148895295Y-111916666D02*
X149038152Y-111916666D01*
X149038152Y-111916666D02*
X149133390Y-111964285D01*
X149133390Y-111964285D02*
X149181009Y-112011904D01*
X149181009Y-112011904D02*
X149228628Y-112107142D01*
X149228628Y-112107142D02*
X149228628Y-112488094D01*
X148704819Y-111059523D02*
X148704819Y-111249999D01*
X148704819Y-111249999D02*
X148752438Y-111345237D01*
X148752438Y-111345237D02*
X148800057Y-111392856D01*
X148800057Y-111392856D02*
X148942914Y-111488094D01*
X148942914Y-111488094D02*
X149133390Y-111535713D01*
X149133390Y-111535713D02*
X149514342Y-111535713D01*
X149514342Y-111535713D02*
X149609580Y-111488094D01*
X149609580Y-111488094D02*
X149657200Y-111440475D01*
X149657200Y-111440475D02*
X149704819Y-111345237D01*
X149704819Y-111345237D02*
X149704819Y-111154761D01*
X149704819Y-111154761D02*
X149657200Y-111059523D01*
X149657200Y-111059523D02*
X149609580Y-111011904D01*
X149609580Y-111011904D02*
X149514342Y-110964285D01*
X149514342Y-110964285D02*
X149276247Y-110964285D01*
X149276247Y-110964285D02*
X149181009Y-111011904D01*
X149181009Y-111011904D02*
X149133390Y-111059523D01*
X149133390Y-111059523D02*
X149085771Y-111154761D01*
X149085771Y-111154761D02*
X149085771Y-111345237D01*
X149085771Y-111345237D02*
X149133390Y-111440475D01*
X149133390Y-111440475D02*
X149181009Y-111488094D01*
X149181009Y-111488094D02*
X149276247Y-111535713D01*
X114754819Y-98892857D02*
X114278628Y-99226190D01*
X114754819Y-99464285D02*
X113754819Y-99464285D01*
X113754819Y-99464285D02*
X113754819Y-99083333D01*
X113754819Y-99083333D02*
X113802438Y-98988095D01*
X113802438Y-98988095D02*
X113850057Y-98940476D01*
X113850057Y-98940476D02*
X113945295Y-98892857D01*
X113945295Y-98892857D02*
X114088152Y-98892857D01*
X114088152Y-98892857D02*
X114183390Y-98940476D01*
X114183390Y-98940476D02*
X114231009Y-98988095D01*
X114231009Y-98988095D02*
X114278628Y-99083333D01*
X114278628Y-99083333D02*
X114278628Y-99464285D01*
X114754819Y-97940476D02*
X114754819Y-98511904D01*
X114754819Y-98226190D02*
X113754819Y-98226190D01*
X113754819Y-98226190D02*
X113897676Y-98321428D01*
X113897676Y-98321428D02*
X113992914Y-98416666D01*
X113992914Y-98416666D02*
X114040533Y-98511904D01*
X113850057Y-97559523D02*
X113802438Y-97511904D01*
X113802438Y-97511904D02*
X113754819Y-97416666D01*
X113754819Y-97416666D02*
X113754819Y-97178571D01*
X113754819Y-97178571D02*
X113802438Y-97083333D01*
X113802438Y-97083333D02*
X113850057Y-97035714D01*
X113850057Y-97035714D02*
X113945295Y-96988095D01*
X113945295Y-96988095D02*
X114040533Y-96988095D01*
X114040533Y-96988095D02*
X114183390Y-97035714D01*
X114183390Y-97035714D02*
X114754819Y-97607142D01*
X114754819Y-97607142D02*
X114754819Y-96988095D01*
X81244819Y-109133333D02*
X81959104Y-109133333D01*
X81959104Y-109133333D02*
X82101961Y-109180952D01*
X82101961Y-109180952D02*
X82197200Y-109276190D01*
X82197200Y-109276190D02*
X82244819Y-109419047D01*
X82244819Y-109419047D02*
X82244819Y-109514285D01*
X82244819Y-108133333D02*
X82244819Y-108704761D01*
X82244819Y-108419047D02*
X81244819Y-108419047D01*
X81244819Y-108419047D02*
X81387676Y-108514285D01*
X81387676Y-108514285D02*
X81482914Y-108609523D01*
X81482914Y-108609523D02*
X81530533Y-108704761D01*
X108144819Y-102582857D02*
X107668628Y-102916190D01*
X108144819Y-103154285D02*
X107144819Y-103154285D01*
X107144819Y-103154285D02*
X107144819Y-102773333D01*
X107144819Y-102773333D02*
X107192438Y-102678095D01*
X107192438Y-102678095D02*
X107240057Y-102630476D01*
X107240057Y-102630476D02*
X107335295Y-102582857D01*
X107335295Y-102582857D02*
X107478152Y-102582857D01*
X107478152Y-102582857D02*
X107573390Y-102630476D01*
X107573390Y-102630476D02*
X107621009Y-102678095D01*
X107621009Y-102678095D02*
X107668628Y-102773333D01*
X107668628Y-102773333D02*
X107668628Y-103154285D01*
X108144819Y-101630476D02*
X108144819Y-102201904D01*
X108144819Y-101916190D02*
X107144819Y-101916190D01*
X107144819Y-101916190D02*
X107287676Y-102011428D01*
X107287676Y-102011428D02*
X107382914Y-102106666D01*
X107382914Y-102106666D02*
X107430533Y-102201904D01*
X107144819Y-101011428D02*
X107144819Y-100916190D01*
X107144819Y-100916190D02*
X107192438Y-100820952D01*
X107192438Y-100820952D02*
X107240057Y-100773333D01*
X107240057Y-100773333D02*
X107335295Y-100725714D01*
X107335295Y-100725714D02*
X107525771Y-100678095D01*
X107525771Y-100678095D02*
X107763866Y-100678095D01*
X107763866Y-100678095D02*
X107954342Y-100725714D01*
X107954342Y-100725714D02*
X108049580Y-100773333D01*
X108049580Y-100773333D02*
X108097200Y-100820952D01*
X108097200Y-100820952D02*
X108144819Y-100916190D01*
X108144819Y-100916190D02*
X108144819Y-101011428D01*
X108144819Y-101011428D02*
X108097200Y-101106666D01*
X108097200Y-101106666D02*
X108049580Y-101154285D01*
X108049580Y-101154285D02*
X107954342Y-101201904D01*
X107954342Y-101201904D02*
X107763866Y-101249523D01*
X107763866Y-101249523D02*
X107525771Y-101249523D01*
X107525771Y-101249523D02*
X107335295Y-101201904D01*
X107335295Y-101201904D02*
X107240057Y-101154285D01*
X107240057Y-101154285D02*
X107192438Y-101106666D01*
X107192438Y-101106666D02*
X107144819Y-101011428D01*
X155654761Y-109800057D02*
X155559523Y-109752438D01*
X155559523Y-109752438D02*
X155464285Y-109657200D01*
X155464285Y-109657200D02*
X155321428Y-109514342D01*
X155321428Y-109514342D02*
X155226190Y-109466723D01*
X155226190Y-109466723D02*
X155130952Y-109466723D01*
X155178571Y-109704819D02*
X155083333Y-109657200D01*
X155083333Y-109657200D02*
X154988095Y-109561961D01*
X154988095Y-109561961D02*
X154940476Y-109371485D01*
X154940476Y-109371485D02*
X154940476Y-109038152D01*
X154940476Y-109038152D02*
X154988095Y-108847676D01*
X154988095Y-108847676D02*
X155083333Y-108752438D01*
X155083333Y-108752438D02*
X155178571Y-108704819D01*
X155178571Y-108704819D02*
X155369047Y-108704819D01*
X155369047Y-108704819D02*
X155464285Y-108752438D01*
X155464285Y-108752438D02*
X155559523Y-108847676D01*
X155559523Y-108847676D02*
X155607142Y-109038152D01*
X155607142Y-109038152D02*
X155607142Y-109371485D01*
X155607142Y-109371485D02*
X155559523Y-109561961D01*
X155559523Y-109561961D02*
X155464285Y-109657200D01*
X155464285Y-109657200D02*
X155369047Y-109704819D01*
X155369047Y-109704819D02*
X155178571Y-109704819D01*
X155988095Y-108800057D02*
X156035714Y-108752438D01*
X156035714Y-108752438D02*
X156130952Y-108704819D01*
X156130952Y-108704819D02*
X156369047Y-108704819D01*
X156369047Y-108704819D02*
X156464285Y-108752438D01*
X156464285Y-108752438D02*
X156511904Y-108800057D01*
X156511904Y-108800057D02*
X156559523Y-108895295D01*
X156559523Y-108895295D02*
X156559523Y-108990533D01*
X156559523Y-108990533D02*
X156511904Y-109133390D01*
X156511904Y-109133390D02*
X155940476Y-109704819D01*
X155940476Y-109704819D02*
X156559523Y-109704819D01*
X175961905Y-114204819D02*
X175961905Y-113204819D01*
X175961905Y-113204819D02*
X176200000Y-113204819D01*
X176200000Y-113204819D02*
X176342857Y-113252438D01*
X176342857Y-113252438D02*
X176438095Y-113347676D01*
X176438095Y-113347676D02*
X176485714Y-113442914D01*
X176485714Y-113442914D02*
X176533333Y-113633390D01*
X176533333Y-113633390D02*
X176533333Y-113776247D01*
X176533333Y-113776247D02*
X176485714Y-113966723D01*
X176485714Y-113966723D02*
X176438095Y-114061961D01*
X176438095Y-114061961D02*
X176342857Y-114157200D01*
X176342857Y-114157200D02*
X176200000Y-114204819D01*
X176200000Y-114204819D02*
X175961905Y-114204819D01*
X177485714Y-114204819D02*
X176914286Y-114204819D01*
X177200000Y-114204819D02*
X177200000Y-113204819D01*
X177200000Y-113204819D02*
X177104762Y-113347676D01*
X177104762Y-113347676D02*
X177009524Y-113442914D01*
X177009524Y-113442914D02*
X176914286Y-113490533D01*
X96994819Y-104761904D02*
X97804342Y-104761904D01*
X97804342Y-104761904D02*
X97899580Y-104714285D01*
X97899580Y-104714285D02*
X97947200Y-104666666D01*
X97947200Y-104666666D02*
X97994819Y-104571428D01*
X97994819Y-104571428D02*
X97994819Y-104380952D01*
X97994819Y-104380952D02*
X97947200Y-104285714D01*
X97947200Y-104285714D02*
X97899580Y-104238095D01*
X97899580Y-104238095D02*
X97804342Y-104190476D01*
X97804342Y-104190476D02*
X96994819Y-104190476D01*
X97994819Y-103190476D02*
X97994819Y-103761904D01*
X97994819Y-103476190D02*
X96994819Y-103476190D01*
X96994819Y-103476190D02*
X97137676Y-103571428D01*
X97137676Y-103571428D02*
X97232914Y-103666666D01*
X97232914Y-103666666D02*
X97280533Y-103761904D01*
X154367319Y-136916666D02*
X153891128Y-137249999D01*
X154367319Y-137488094D02*
X153367319Y-137488094D01*
X153367319Y-137488094D02*
X153367319Y-137107142D01*
X153367319Y-137107142D02*
X153414938Y-137011904D01*
X153414938Y-137011904D02*
X153462557Y-136964285D01*
X153462557Y-136964285D02*
X153557795Y-136916666D01*
X153557795Y-136916666D02*
X153700652Y-136916666D01*
X153700652Y-136916666D02*
X153795890Y-136964285D01*
X153795890Y-136964285D02*
X153843509Y-137011904D01*
X153843509Y-137011904D02*
X153891128Y-137107142D01*
X153891128Y-137107142D02*
X153891128Y-137488094D01*
X153367319Y-136583332D02*
X153367319Y-135964285D01*
X153367319Y-135964285D02*
X153748271Y-136297618D01*
X153748271Y-136297618D02*
X153748271Y-136154761D01*
X153748271Y-136154761D02*
X153795890Y-136059523D01*
X153795890Y-136059523D02*
X153843509Y-136011904D01*
X153843509Y-136011904D02*
X153938747Y-135964285D01*
X153938747Y-135964285D02*
X154176842Y-135964285D01*
X154176842Y-135964285D02*
X154272080Y-136011904D01*
X154272080Y-136011904D02*
X154319700Y-136059523D01*
X154319700Y-136059523D02*
X154367319Y-136154761D01*
X154367319Y-136154761D02*
X154367319Y-136440475D01*
X154367319Y-136440475D02*
X154319700Y-136535713D01*
X154319700Y-136535713D02*
X154272080Y-136583332D01*
X160404761Y-109800057D02*
X160309523Y-109752438D01*
X160309523Y-109752438D02*
X160214285Y-109657200D01*
X160214285Y-109657200D02*
X160071428Y-109514342D01*
X160071428Y-109514342D02*
X159976190Y-109466723D01*
X159976190Y-109466723D02*
X159880952Y-109466723D01*
X159928571Y-109704819D02*
X159833333Y-109657200D01*
X159833333Y-109657200D02*
X159738095Y-109561961D01*
X159738095Y-109561961D02*
X159690476Y-109371485D01*
X159690476Y-109371485D02*
X159690476Y-109038152D01*
X159690476Y-109038152D02*
X159738095Y-108847676D01*
X159738095Y-108847676D02*
X159833333Y-108752438D01*
X159833333Y-108752438D02*
X159928571Y-108704819D01*
X159928571Y-108704819D02*
X160119047Y-108704819D01*
X160119047Y-108704819D02*
X160214285Y-108752438D01*
X160214285Y-108752438D02*
X160309523Y-108847676D01*
X160309523Y-108847676D02*
X160357142Y-109038152D01*
X160357142Y-109038152D02*
X160357142Y-109371485D01*
X160357142Y-109371485D02*
X160309523Y-109561961D01*
X160309523Y-109561961D02*
X160214285Y-109657200D01*
X160214285Y-109657200D02*
X160119047Y-109704819D01*
X160119047Y-109704819D02*
X159928571Y-109704819D01*
X160690476Y-108704819D02*
X161309523Y-108704819D01*
X161309523Y-108704819D02*
X160976190Y-109085771D01*
X160976190Y-109085771D02*
X161119047Y-109085771D01*
X161119047Y-109085771D02*
X161214285Y-109133390D01*
X161214285Y-109133390D02*
X161261904Y-109181009D01*
X161261904Y-109181009D02*
X161309523Y-109276247D01*
X161309523Y-109276247D02*
X161309523Y-109514342D01*
X161309523Y-109514342D02*
X161261904Y-109609580D01*
X161261904Y-109609580D02*
X161214285Y-109657200D01*
X161214285Y-109657200D02*
X161119047Y-109704819D01*
X161119047Y-109704819D02*
X160833333Y-109704819D01*
X160833333Y-109704819D02*
X160738095Y-109657200D01*
X160738095Y-109657200D02*
X160690476Y-109609580D01*
X114357142Y-104204819D02*
X114023809Y-103728628D01*
X113785714Y-104204819D02*
X113785714Y-103204819D01*
X113785714Y-103204819D02*
X114166666Y-103204819D01*
X114166666Y-103204819D02*
X114261904Y-103252438D01*
X114261904Y-103252438D02*
X114309523Y-103300057D01*
X114309523Y-103300057D02*
X114357142Y-103395295D01*
X114357142Y-103395295D02*
X114357142Y-103538152D01*
X114357142Y-103538152D02*
X114309523Y-103633390D01*
X114309523Y-103633390D02*
X114261904Y-103681009D01*
X114261904Y-103681009D02*
X114166666Y-103728628D01*
X114166666Y-103728628D02*
X113785714Y-103728628D01*
X115309523Y-104204819D02*
X114738095Y-104204819D01*
X115023809Y-104204819D02*
X115023809Y-103204819D01*
X115023809Y-103204819D02*
X114928571Y-103347676D01*
X114928571Y-103347676D02*
X114833333Y-103442914D01*
X114833333Y-103442914D02*
X114738095Y-103490533D01*
X116261904Y-104204819D02*
X115690476Y-104204819D01*
X115976190Y-104204819D02*
X115976190Y-103204819D01*
X115976190Y-103204819D02*
X115880952Y-103347676D01*
X115880952Y-103347676D02*
X115785714Y-103442914D01*
X115785714Y-103442914D02*
X115690476Y-103490533D01*
X106531666Y-94254819D02*
X106531666Y-94969104D01*
X106531666Y-94969104D02*
X106484047Y-95111961D01*
X106484047Y-95111961D02*
X106388809Y-95207200D01*
X106388809Y-95207200D02*
X106245952Y-95254819D01*
X106245952Y-95254819D02*
X106150714Y-95254819D01*
X107436428Y-94588152D02*
X107436428Y-95254819D01*
X107198333Y-94207200D02*
X106960238Y-94921485D01*
X106960238Y-94921485D02*
X107579285Y-94921485D01*
X94861905Y-95154819D02*
X94861905Y-94154819D01*
X94861905Y-94154819D02*
X95242857Y-94154819D01*
X95242857Y-94154819D02*
X95338095Y-94202438D01*
X95338095Y-94202438D02*
X95385714Y-94250057D01*
X95385714Y-94250057D02*
X95433333Y-94345295D01*
X95433333Y-94345295D02*
X95433333Y-94488152D01*
X95433333Y-94488152D02*
X95385714Y-94583390D01*
X95385714Y-94583390D02*
X95338095Y-94631009D01*
X95338095Y-94631009D02*
X95242857Y-94678628D01*
X95242857Y-94678628D02*
X94861905Y-94678628D01*
X96385714Y-95154819D02*
X95814286Y-95154819D01*
X96100000Y-95154819D02*
X96100000Y-94154819D01*
X96100000Y-94154819D02*
X96004762Y-94297676D01*
X96004762Y-94297676D02*
X95909524Y-94392914D01*
X95909524Y-94392914D02*
X95814286Y-94440533D01*
X82083333Y-106964819D02*
X81750000Y-106488628D01*
X81511905Y-106964819D02*
X81511905Y-105964819D01*
X81511905Y-105964819D02*
X81892857Y-105964819D01*
X81892857Y-105964819D02*
X81988095Y-106012438D01*
X81988095Y-106012438D02*
X82035714Y-106060057D01*
X82035714Y-106060057D02*
X82083333Y-106155295D01*
X82083333Y-106155295D02*
X82083333Y-106298152D01*
X82083333Y-106298152D02*
X82035714Y-106393390D01*
X82035714Y-106393390D02*
X81988095Y-106441009D01*
X81988095Y-106441009D02*
X81892857Y-106488628D01*
X81892857Y-106488628D02*
X81511905Y-106488628D01*
X82559524Y-106964819D02*
X82750000Y-106964819D01*
X82750000Y-106964819D02*
X82845238Y-106917200D01*
X82845238Y-106917200D02*
X82892857Y-106869580D01*
X82892857Y-106869580D02*
X82988095Y-106726723D01*
X82988095Y-106726723D02*
X83035714Y-106536247D01*
X83035714Y-106536247D02*
X83035714Y-106155295D01*
X83035714Y-106155295D02*
X82988095Y-106060057D01*
X82988095Y-106060057D02*
X82940476Y-106012438D01*
X82940476Y-106012438D02*
X82845238Y-105964819D01*
X82845238Y-105964819D02*
X82654762Y-105964819D01*
X82654762Y-105964819D02*
X82559524Y-106012438D01*
X82559524Y-106012438D02*
X82511905Y-106060057D01*
X82511905Y-106060057D02*
X82464286Y-106155295D01*
X82464286Y-106155295D02*
X82464286Y-106393390D01*
X82464286Y-106393390D02*
X82511905Y-106488628D01*
X82511905Y-106488628D02*
X82559524Y-106536247D01*
X82559524Y-106536247D02*
X82654762Y-106583866D01*
X82654762Y-106583866D02*
X82845238Y-106583866D01*
X82845238Y-106583866D02*
X82940476Y-106536247D01*
X82940476Y-106536247D02*
X82988095Y-106488628D01*
X82988095Y-106488628D02*
X83035714Y-106393390D01*
X93233333Y-91659580D02*
X93185714Y-91707200D01*
X93185714Y-91707200D02*
X93042857Y-91754819D01*
X93042857Y-91754819D02*
X92947619Y-91754819D01*
X92947619Y-91754819D02*
X92804762Y-91707200D01*
X92804762Y-91707200D02*
X92709524Y-91611961D01*
X92709524Y-91611961D02*
X92661905Y-91516723D01*
X92661905Y-91516723D02*
X92614286Y-91326247D01*
X92614286Y-91326247D02*
X92614286Y-91183390D01*
X92614286Y-91183390D02*
X92661905Y-90992914D01*
X92661905Y-90992914D02*
X92709524Y-90897676D01*
X92709524Y-90897676D02*
X92804762Y-90802438D01*
X92804762Y-90802438D02*
X92947619Y-90754819D01*
X92947619Y-90754819D02*
X93042857Y-90754819D01*
X93042857Y-90754819D02*
X93185714Y-90802438D01*
X93185714Y-90802438D02*
X93233333Y-90850057D01*
X93566667Y-90754819D02*
X94185714Y-90754819D01*
X94185714Y-90754819D02*
X93852381Y-91135771D01*
X93852381Y-91135771D02*
X93995238Y-91135771D01*
X93995238Y-91135771D02*
X94090476Y-91183390D01*
X94090476Y-91183390D02*
X94138095Y-91231009D01*
X94138095Y-91231009D02*
X94185714Y-91326247D01*
X94185714Y-91326247D02*
X94185714Y-91564342D01*
X94185714Y-91564342D02*
X94138095Y-91659580D01*
X94138095Y-91659580D02*
X94090476Y-91707200D01*
X94090476Y-91707200D02*
X93995238Y-91754819D01*
X93995238Y-91754819D02*
X93709524Y-91754819D01*
X93709524Y-91754819D02*
X93614286Y-91707200D01*
X93614286Y-91707200D02*
X93566667Y-91659580D01*
X131904761Y-109800057D02*
X131809523Y-109752438D01*
X131809523Y-109752438D02*
X131714285Y-109657200D01*
X131714285Y-109657200D02*
X131571428Y-109514342D01*
X131571428Y-109514342D02*
X131476190Y-109466723D01*
X131476190Y-109466723D02*
X131380952Y-109466723D01*
X131428571Y-109704819D02*
X131333333Y-109657200D01*
X131333333Y-109657200D02*
X131238095Y-109561961D01*
X131238095Y-109561961D02*
X131190476Y-109371485D01*
X131190476Y-109371485D02*
X131190476Y-109038152D01*
X131190476Y-109038152D02*
X131238095Y-108847676D01*
X131238095Y-108847676D02*
X131333333Y-108752438D01*
X131333333Y-108752438D02*
X131428571Y-108704819D01*
X131428571Y-108704819D02*
X131619047Y-108704819D01*
X131619047Y-108704819D02*
X131714285Y-108752438D01*
X131714285Y-108752438D02*
X131809523Y-108847676D01*
X131809523Y-108847676D02*
X131857142Y-109038152D01*
X131857142Y-109038152D02*
X131857142Y-109371485D01*
X131857142Y-109371485D02*
X131809523Y-109561961D01*
X131809523Y-109561961D02*
X131714285Y-109657200D01*
X131714285Y-109657200D02*
X131619047Y-109704819D01*
X131619047Y-109704819D02*
X131428571Y-109704819D01*
X132761904Y-108704819D02*
X132285714Y-108704819D01*
X132285714Y-108704819D02*
X132238095Y-109181009D01*
X132238095Y-109181009D02*
X132285714Y-109133390D01*
X132285714Y-109133390D02*
X132380952Y-109085771D01*
X132380952Y-109085771D02*
X132619047Y-109085771D01*
X132619047Y-109085771D02*
X132714285Y-109133390D01*
X132714285Y-109133390D02*
X132761904Y-109181009D01*
X132761904Y-109181009D02*
X132809523Y-109276247D01*
X132809523Y-109276247D02*
X132809523Y-109514342D01*
X132809523Y-109514342D02*
X132761904Y-109609580D01*
X132761904Y-109609580D02*
X132714285Y-109657200D01*
X132714285Y-109657200D02*
X132619047Y-109704819D01*
X132619047Y-109704819D02*
X132380952Y-109704819D01*
X132380952Y-109704819D02*
X132285714Y-109657200D01*
X132285714Y-109657200D02*
X132238095Y-109609580D01*
X145607142Y-93334819D02*
X145273809Y-92858628D01*
X145035714Y-93334819D02*
X145035714Y-92334819D01*
X145035714Y-92334819D02*
X145416666Y-92334819D01*
X145416666Y-92334819D02*
X145511904Y-92382438D01*
X145511904Y-92382438D02*
X145559523Y-92430057D01*
X145559523Y-92430057D02*
X145607142Y-92525295D01*
X145607142Y-92525295D02*
X145607142Y-92668152D01*
X145607142Y-92668152D02*
X145559523Y-92763390D01*
X145559523Y-92763390D02*
X145511904Y-92811009D01*
X145511904Y-92811009D02*
X145416666Y-92858628D01*
X145416666Y-92858628D02*
X145035714Y-92858628D01*
X146559523Y-93334819D02*
X145988095Y-93334819D01*
X146273809Y-93334819D02*
X146273809Y-92334819D01*
X146273809Y-92334819D02*
X146178571Y-92477676D01*
X146178571Y-92477676D02*
X146083333Y-92572914D01*
X146083333Y-92572914D02*
X145988095Y-92620533D01*
X146892857Y-92334819D02*
X147511904Y-92334819D01*
X147511904Y-92334819D02*
X147178571Y-92715771D01*
X147178571Y-92715771D02*
X147321428Y-92715771D01*
X147321428Y-92715771D02*
X147416666Y-92763390D01*
X147416666Y-92763390D02*
X147464285Y-92811009D01*
X147464285Y-92811009D02*
X147511904Y-92906247D01*
X147511904Y-92906247D02*
X147511904Y-93144342D01*
X147511904Y-93144342D02*
X147464285Y-93239580D01*
X147464285Y-93239580D02*
X147416666Y-93287200D01*
X147416666Y-93287200D02*
X147321428Y-93334819D01*
X147321428Y-93334819D02*
X147035714Y-93334819D01*
X147035714Y-93334819D02*
X146940476Y-93287200D01*
X146940476Y-93287200D02*
X146892857Y-93239580D01*
X151640952Y-91464819D02*
X151164762Y-91464819D01*
X151164762Y-91464819D02*
X151164762Y-90464819D01*
X151974286Y-90941009D02*
X152307619Y-90941009D01*
X152450476Y-91464819D02*
X151974286Y-91464819D01*
X151974286Y-91464819D02*
X151974286Y-90464819D01*
X151974286Y-90464819D02*
X152450476Y-90464819D01*
X152879048Y-91464819D02*
X152879048Y-90464819D01*
X152879048Y-90464819D02*
X153117143Y-90464819D01*
X153117143Y-90464819D02*
X153260000Y-90512438D01*
X153260000Y-90512438D02*
X153355238Y-90607676D01*
X153355238Y-90607676D02*
X153402857Y-90702914D01*
X153402857Y-90702914D02*
X153450476Y-90893390D01*
X153450476Y-90893390D02*
X153450476Y-91036247D01*
X153450476Y-91036247D02*
X153402857Y-91226723D01*
X153402857Y-91226723D02*
X153355238Y-91321961D01*
X153355238Y-91321961D02*
X153260000Y-91417200D01*
X153260000Y-91417200D02*
X153117143Y-91464819D01*
X153117143Y-91464819D02*
X152879048Y-91464819D01*
X154402857Y-91464819D02*
X153831429Y-91464819D01*
X154117143Y-91464819D02*
X154117143Y-90464819D01*
X154117143Y-90464819D02*
X154021905Y-90607676D01*
X154021905Y-90607676D02*
X153926667Y-90702914D01*
X153926667Y-90702914D02*
X153831429Y-90750533D01*
X81144819Y-134533333D02*
X81859104Y-134533333D01*
X81859104Y-134533333D02*
X82001961Y-134580952D01*
X82001961Y-134580952D02*
X82097200Y-134676190D01*
X82097200Y-134676190D02*
X82144819Y-134819047D01*
X82144819Y-134819047D02*
X82144819Y-134914285D01*
X81240057Y-134104761D02*
X81192438Y-134057142D01*
X81192438Y-134057142D02*
X81144819Y-133961904D01*
X81144819Y-133961904D02*
X81144819Y-133723809D01*
X81144819Y-133723809D02*
X81192438Y-133628571D01*
X81192438Y-133628571D02*
X81240057Y-133580952D01*
X81240057Y-133580952D02*
X81335295Y-133533333D01*
X81335295Y-133533333D02*
X81430533Y-133533333D01*
X81430533Y-133533333D02*
X81573390Y-133580952D01*
X81573390Y-133580952D02*
X82144819Y-134152380D01*
X82144819Y-134152380D02*
X82144819Y-133533333D01*
X159054819Y-136816666D02*
X158578628Y-137149999D01*
X159054819Y-137388094D02*
X158054819Y-137388094D01*
X158054819Y-137388094D02*
X158054819Y-137007142D01*
X158054819Y-137007142D02*
X158102438Y-136911904D01*
X158102438Y-136911904D02*
X158150057Y-136864285D01*
X158150057Y-136864285D02*
X158245295Y-136816666D01*
X158245295Y-136816666D02*
X158388152Y-136816666D01*
X158388152Y-136816666D02*
X158483390Y-136864285D01*
X158483390Y-136864285D02*
X158531009Y-136911904D01*
X158531009Y-136911904D02*
X158578628Y-137007142D01*
X158578628Y-137007142D02*
X158578628Y-137388094D01*
X158054819Y-136483332D02*
X158054819Y-135816666D01*
X158054819Y-135816666D02*
X159054819Y-136245237D01*
X140454819Y-136916666D02*
X139978628Y-137249999D01*
X140454819Y-137488094D02*
X139454819Y-137488094D01*
X139454819Y-137488094D02*
X139454819Y-137107142D01*
X139454819Y-137107142D02*
X139502438Y-137011904D01*
X139502438Y-137011904D02*
X139550057Y-136964285D01*
X139550057Y-136964285D02*
X139645295Y-136916666D01*
X139645295Y-136916666D02*
X139788152Y-136916666D01*
X139788152Y-136916666D02*
X139883390Y-136964285D01*
X139883390Y-136964285D02*
X139931009Y-137011904D01*
X139931009Y-137011904D02*
X139978628Y-137107142D01*
X139978628Y-137107142D02*
X139978628Y-137488094D01*
X139454819Y-136011904D02*
X139454819Y-136488094D01*
X139454819Y-136488094D02*
X139931009Y-136535713D01*
X139931009Y-136535713D02*
X139883390Y-136488094D01*
X139883390Y-136488094D02*
X139835771Y-136392856D01*
X139835771Y-136392856D02*
X139835771Y-136154761D01*
X139835771Y-136154761D02*
X139883390Y-136059523D01*
X139883390Y-136059523D02*
X139931009Y-136011904D01*
X139931009Y-136011904D02*
X140026247Y-135964285D01*
X140026247Y-135964285D02*
X140264342Y-135964285D01*
X140264342Y-135964285D02*
X140359580Y-136011904D01*
X140359580Y-136011904D02*
X140407200Y-136059523D01*
X140407200Y-136059523D02*
X140454819Y-136154761D01*
X140454819Y-136154761D02*
X140454819Y-136392856D01*
X140454819Y-136392856D02*
X140407200Y-136488094D01*
X140407200Y-136488094D02*
X140359580Y-136535713D01*
X119846666Y-90854819D02*
X119846666Y-91569104D01*
X119846666Y-91569104D02*
X119799047Y-91711961D01*
X119799047Y-91711961D02*
X119703809Y-91807200D01*
X119703809Y-91807200D02*
X119560952Y-91854819D01*
X119560952Y-91854819D02*
X119465714Y-91854819D01*
X120227619Y-90854819D02*
X120846666Y-90854819D01*
X120846666Y-90854819D02*
X120513333Y-91235771D01*
X120513333Y-91235771D02*
X120656190Y-91235771D01*
X120656190Y-91235771D02*
X120751428Y-91283390D01*
X120751428Y-91283390D02*
X120799047Y-91331009D01*
X120799047Y-91331009D02*
X120846666Y-91426247D01*
X120846666Y-91426247D02*
X120846666Y-91664342D01*
X120846666Y-91664342D02*
X120799047Y-91759580D01*
X120799047Y-91759580D02*
X120751428Y-91807200D01*
X120751428Y-91807200D02*
X120656190Y-91854819D01*
X120656190Y-91854819D02*
X120370476Y-91854819D01*
X120370476Y-91854819D02*
X120275238Y-91807200D01*
X120275238Y-91807200D02*
X120227619Y-91759580D01*
X141604761Y-109750057D02*
X141509523Y-109702438D01*
X141509523Y-109702438D02*
X141414285Y-109607200D01*
X141414285Y-109607200D02*
X141271428Y-109464342D01*
X141271428Y-109464342D02*
X141176190Y-109416723D01*
X141176190Y-109416723D02*
X141080952Y-109416723D01*
X141128571Y-109654819D02*
X141033333Y-109607200D01*
X141033333Y-109607200D02*
X140938095Y-109511961D01*
X140938095Y-109511961D02*
X140890476Y-109321485D01*
X140890476Y-109321485D02*
X140890476Y-108988152D01*
X140890476Y-108988152D02*
X140938095Y-108797676D01*
X140938095Y-108797676D02*
X141033333Y-108702438D01*
X141033333Y-108702438D02*
X141128571Y-108654819D01*
X141128571Y-108654819D02*
X141319047Y-108654819D01*
X141319047Y-108654819D02*
X141414285Y-108702438D01*
X141414285Y-108702438D02*
X141509523Y-108797676D01*
X141509523Y-108797676D02*
X141557142Y-108988152D01*
X141557142Y-108988152D02*
X141557142Y-109321485D01*
X141557142Y-109321485D02*
X141509523Y-109511961D01*
X141509523Y-109511961D02*
X141414285Y-109607200D01*
X141414285Y-109607200D02*
X141319047Y-109654819D01*
X141319047Y-109654819D02*
X141128571Y-109654819D01*
X142509523Y-109654819D02*
X141938095Y-109654819D01*
X142223809Y-109654819D02*
X142223809Y-108654819D01*
X142223809Y-108654819D02*
X142128571Y-108797676D01*
X142128571Y-108797676D02*
X142033333Y-108892914D01*
X142033333Y-108892914D02*
X141938095Y-108940533D01*
X145142319Y-136916666D02*
X144666128Y-137249999D01*
X145142319Y-137488094D02*
X144142319Y-137488094D01*
X144142319Y-137488094D02*
X144142319Y-137107142D01*
X144142319Y-137107142D02*
X144189938Y-137011904D01*
X144189938Y-137011904D02*
X144237557Y-136964285D01*
X144237557Y-136964285D02*
X144332795Y-136916666D01*
X144332795Y-136916666D02*
X144475652Y-136916666D01*
X144475652Y-136916666D02*
X144570890Y-136964285D01*
X144570890Y-136964285D02*
X144618509Y-137011904D01*
X144618509Y-137011904D02*
X144666128Y-137107142D01*
X144666128Y-137107142D02*
X144666128Y-137488094D01*
X144475652Y-136059523D02*
X145142319Y-136059523D01*
X144094700Y-136297618D02*
X144808985Y-136535713D01*
X144808985Y-136535713D02*
X144808985Y-135916666D01*
X124462543Y-97261904D02*
X125272066Y-97261904D01*
X125272066Y-97261904D02*
X125367304Y-97214285D01*
X125367304Y-97214285D02*
X125414924Y-97166666D01*
X125414924Y-97166666D02*
X125462543Y-97071428D01*
X125462543Y-97071428D02*
X125462543Y-96880952D01*
X125462543Y-96880952D02*
X125414924Y-96785714D01*
X125414924Y-96785714D02*
X125367304Y-96738095D01*
X125367304Y-96738095D02*
X125272066Y-96690476D01*
X125272066Y-96690476D02*
X124462543Y-96690476D01*
X124557781Y-96261904D02*
X124510162Y-96214285D01*
X124510162Y-96214285D02*
X124462543Y-96119047D01*
X124462543Y-96119047D02*
X124462543Y-95880952D01*
X124462543Y-95880952D02*
X124510162Y-95785714D01*
X124510162Y-95785714D02*
X124557781Y-95738095D01*
X124557781Y-95738095D02*
X124653019Y-95690476D01*
X124653019Y-95690476D02*
X124748257Y-95690476D01*
X124748257Y-95690476D02*
X124891114Y-95738095D01*
X124891114Y-95738095D02*
X125462543Y-96309523D01*
X125462543Y-96309523D02*
X125462543Y-95690476D01*
X119107142Y-104204819D02*
X118773809Y-103728628D01*
X118535714Y-104204819D02*
X118535714Y-103204819D01*
X118535714Y-103204819D02*
X118916666Y-103204819D01*
X118916666Y-103204819D02*
X119011904Y-103252438D01*
X119011904Y-103252438D02*
X119059523Y-103300057D01*
X119059523Y-103300057D02*
X119107142Y-103395295D01*
X119107142Y-103395295D02*
X119107142Y-103538152D01*
X119107142Y-103538152D02*
X119059523Y-103633390D01*
X119059523Y-103633390D02*
X119011904Y-103681009D01*
X119011904Y-103681009D02*
X118916666Y-103728628D01*
X118916666Y-103728628D02*
X118535714Y-103728628D01*
X120059523Y-104204819D02*
X119488095Y-104204819D01*
X119773809Y-104204819D02*
X119773809Y-103204819D01*
X119773809Y-103204819D02*
X119678571Y-103347676D01*
X119678571Y-103347676D02*
X119583333Y-103442914D01*
X119583333Y-103442914D02*
X119488095Y-103490533D01*
X120916666Y-103538152D02*
X120916666Y-104204819D01*
X120678571Y-103157200D02*
X120440476Y-103871485D01*
X120440476Y-103871485D02*
X121059523Y-103871485D01*
X165833333Y-110954819D02*
X165500000Y-110478628D01*
X165261905Y-110954819D02*
X165261905Y-109954819D01*
X165261905Y-109954819D02*
X165642857Y-109954819D01*
X165642857Y-109954819D02*
X165738095Y-110002438D01*
X165738095Y-110002438D02*
X165785714Y-110050057D01*
X165785714Y-110050057D02*
X165833333Y-110145295D01*
X165833333Y-110145295D02*
X165833333Y-110288152D01*
X165833333Y-110288152D02*
X165785714Y-110383390D01*
X165785714Y-110383390D02*
X165738095Y-110431009D01*
X165738095Y-110431009D02*
X165642857Y-110478628D01*
X165642857Y-110478628D02*
X165261905Y-110478628D01*
X166214286Y-110050057D02*
X166261905Y-110002438D01*
X166261905Y-110002438D02*
X166357143Y-109954819D01*
X166357143Y-109954819D02*
X166595238Y-109954819D01*
X166595238Y-109954819D02*
X166690476Y-110002438D01*
X166690476Y-110002438D02*
X166738095Y-110050057D01*
X166738095Y-110050057D02*
X166785714Y-110145295D01*
X166785714Y-110145295D02*
X166785714Y-110240533D01*
X166785714Y-110240533D02*
X166738095Y-110383390D01*
X166738095Y-110383390D02*
X166166667Y-110954819D01*
X166166667Y-110954819D02*
X166785714Y-110954819D01*
X168600057Y-136845238D02*
X168552438Y-136940476D01*
X168552438Y-136940476D02*
X168457200Y-137035714D01*
X168457200Y-137035714D02*
X168314342Y-137178571D01*
X168314342Y-137178571D02*
X168266723Y-137273809D01*
X168266723Y-137273809D02*
X168266723Y-137369047D01*
X168504819Y-137321428D02*
X168457200Y-137416666D01*
X168457200Y-137416666D02*
X168361961Y-137511904D01*
X168361961Y-137511904D02*
X168171485Y-137559523D01*
X168171485Y-137559523D02*
X167838152Y-137559523D01*
X167838152Y-137559523D02*
X167647676Y-137511904D01*
X167647676Y-137511904D02*
X167552438Y-137416666D01*
X167552438Y-137416666D02*
X167504819Y-137321428D01*
X167504819Y-137321428D02*
X167504819Y-137130952D01*
X167504819Y-137130952D02*
X167552438Y-137035714D01*
X167552438Y-137035714D02*
X167647676Y-136940476D01*
X167647676Y-136940476D02*
X167838152Y-136892857D01*
X167838152Y-136892857D02*
X168171485Y-136892857D01*
X168171485Y-136892857D02*
X168361961Y-136940476D01*
X168361961Y-136940476D02*
X168457200Y-137035714D01*
X168457200Y-137035714D02*
X168504819Y-137130952D01*
X168504819Y-137130952D02*
X168504819Y-137321428D01*
X167838152Y-136035714D02*
X168504819Y-136035714D01*
X167457200Y-136273809D02*
X168171485Y-136511904D01*
X168171485Y-136511904D02*
X168171485Y-135892857D01*
X110250000Y-99210000D02*
X108750000Y-99210000D01*
X108600000Y-99060000D02*
X108600000Y-97650000D01*
X110400000Y-97650000D02*
X110400000Y-99060000D01*
X110400000Y-96850000D02*
X110400000Y-95440000D01*
X108600000Y-95440000D02*
X108600000Y-96850000D01*
X110250000Y-95290000D02*
X108750000Y-95290000D01*
X108750000Y-99210000D02*
G75*
G02*
X108600000Y-99060000I0J150000D01*
G01*
X110400000Y-99060000D02*
G75*
G02*
X110250000Y-99210000I-150000J0D01*
G01*
X108600000Y-95440000D02*
G75*
G02*
X108750000Y-95290000I150000J0D01*
G01*
X110250000Y-95290000D02*
G75*
G02*
X110400000Y-95440000I0J-150000D01*
G01*
X108710000Y-105070000D02*
X108710000Y-106570000D01*
X108560000Y-106720000D02*
X107150000Y-106720000D01*
X107150000Y-104920000D02*
X108560000Y-104920000D01*
X106350000Y-104920000D02*
X104940000Y-104920000D01*
X104940000Y-106720000D02*
X106350000Y-106720000D01*
X104790000Y-105070000D02*
X104790000Y-106570000D01*
X108710000Y-106570000D02*
G75*
G02*
X108560000Y-106720000I-150000J0D01*
G01*
X108560000Y-104920000D02*
G75*
G02*
X108710000Y-105070000I0J-150000D01*
G01*
X104940000Y-106720000D02*
G75*
G02*
X104790000Y-106570000I0J150000D01*
G01*
X104790000Y-105070000D02*
G75*
G02*
X104940000Y-104920000I150000J0D01*
G01*
X101980000Y-99020000D02*
X101980000Y-97520000D01*
X102130000Y-97370000D02*
X103540000Y-97370000D01*
X103540000Y-99170000D02*
X102130000Y-99170000D01*
X104340000Y-99170000D02*
X105750000Y-99170000D01*
X105750000Y-97370000D02*
X104340000Y-97370000D01*
X105900000Y-99020000D02*
X105900000Y-97520000D01*
X101980000Y-97520000D02*
G75*
G02*
X102130000Y-97370000I150000J0D01*
G01*
X102130000Y-99170000D02*
G75*
G02*
X101980000Y-99020000I0J150000D01*
G01*
X105750000Y-97370000D02*
G75*
G02*
X105900000Y-97520000I0J-150000D01*
G01*
X105900000Y-99020000D02*
G75*
G02*
X105750000Y-99170000I-150000J0D01*
G01*
X96730000Y-99020000D02*
X96730000Y-97520000D01*
X96880000Y-97370000D02*
X98290000Y-97370000D01*
X98290000Y-99170000D02*
X96880000Y-99170000D01*
X99090000Y-99170000D02*
X100500000Y-99170000D01*
X100500000Y-97370000D02*
X99090000Y-97370000D01*
X100650000Y-99020000D02*
X100650000Y-97520000D01*
X96730000Y-97520000D02*
G75*
G02*
X96880000Y-97370000I150000J0D01*
G01*
X96880000Y-99170000D02*
G75*
G02*
X96730000Y-99020000I0J150000D01*
G01*
X100500000Y-97370000D02*
G75*
G02*
X100650000Y-97520000I0J-150000D01*
G01*
X100650000Y-99020000D02*
G75*
G02*
X100500000Y-99170000I-150000J0D01*
G01*
X96000000Y-105960000D02*
X94500000Y-105960000D01*
X94350000Y-105810000D02*
X94350000Y-104400000D01*
X96150000Y-104400000D02*
X96150000Y-105810000D01*
X96150000Y-103600000D02*
X96150000Y-102190000D01*
X94350000Y-102190000D02*
X94350000Y-103600000D01*
X96000000Y-102040000D02*
X94500000Y-102040000D01*
X94500000Y-105960000D02*
G75*
G02*
X94350000Y-105810000I0J150000D01*
G01*
X96150000Y-105810000D02*
G75*
G02*
X96000000Y-105960000I-150000J0D01*
G01*
X94350000Y-102190000D02*
G75*
G02*
X94500000Y-102040000I150000J0D01*
G01*
X96000000Y-102040000D02*
G75*
G02*
X96150000Y-102190000I0J-150000D01*
G01*
X150205000Y-134990000D02*
X150205000Y-136270000D01*
X150205000Y-138510000D02*
X150205000Y-137230000D01*
X152045000Y-134990000D02*
X150205000Y-134990000D01*
X152045000Y-136270000D02*
X152045000Y-134990000D01*
X152045000Y-137230000D02*
X152045000Y-138510000D01*
X152045000Y-138510000D02*
X150205000Y-138510000D01*
D12*
X169230000Y-100930000D02*
X171260000Y-100930000D01*
X171260000Y-100930000D02*
X171260000Y-102590000D01*
D11*
X146030000Y-109990000D02*
X147870000Y-109990000D01*
X146030000Y-111270000D02*
X146030000Y-109990000D01*
X146030000Y-112230000D02*
X146030000Y-113510000D01*
X146030000Y-113510000D02*
X147870000Y-113510000D01*
X147870000Y-109990000D02*
X147870000Y-111270000D01*
X147870000Y-113510000D02*
X147870000Y-112230000D01*
D12*
X154680000Y-100930000D02*
X156710000Y-100930000D01*
X156710000Y-100930000D02*
X156710000Y-102590000D01*
X140130000Y-100930000D02*
X142160000Y-100930000D01*
X142160000Y-100930000D02*
X142160000Y-102590000D01*
D11*
X150330000Y-109990000D02*
X152170000Y-109990000D01*
X150330000Y-111270000D02*
X150330000Y-109990000D01*
X150330000Y-112230000D02*
X150330000Y-113510000D01*
X150330000Y-113510000D02*
X152170000Y-113510000D01*
X152170000Y-109990000D02*
X152170000Y-111270000D01*
X152170000Y-113510000D02*
X152170000Y-112230000D01*
D12*
X117350000Y-96950000D02*
X117350000Y-96150000D01*
X117350000Y-97450000D02*
X118950000Y-97450000D01*
X117350000Y-97950000D02*
X117350000Y-97450000D01*
X117350000Y-98550000D02*
X118850000Y-98550000D01*
X117350000Y-99250000D02*
X117350000Y-98550000D01*
X117350000Y-99850000D02*
X118850000Y-99850000D01*
X117350000Y-100550000D02*
X117350000Y-99850000D01*
X118850000Y-97950000D02*
X117350000Y-97950000D01*
X118850000Y-99250000D02*
X117350000Y-99250000D01*
X118850000Y-99850000D02*
X118850000Y-99250000D01*
X118950000Y-96950000D02*
X117350000Y-96950000D01*
X118950000Y-97450000D02*
X118950000Y-96950000D01*
X119150000Y-100550000D02*
X116850000Y-100550000D01*
X119350000Y-96150000D02*
X116850000Y-96150000D01*
X116850000Y-100550000D02*
G75*
G02*
X116860068Y-96146091I859999J2200000D01*
G01*
X119350000Y-96150000D02*
G75*
G02*
X119158161Y-100546284I-970000J-2160000D01*
G01*
D13*
X81370000Y-113180000D02*
X81370000Y-111800000D01*
X82750000Y-113180000D02*
X81370000Y-113180000D01*
X84020000Y-110420000D02*
X119690000Y-110420000D01*
X84020000Y-113180000D02*
X84020000Y-110420000D01*
X84020000Y-113180000D02*
X119690000Y-113180000D01*
X119690000Y-113180000D02*
X119690000Y-110420000D01*
D11*
X104760000Y-100180000D02*
X106600000Y-100180000D01*
X104760000Y-101460000D02*
X104760000Y-100180000D01*
X104760000Y-102420000D02*
X104760000Y-103700000D01*
X104760000Y-103700000D02*
X106600000Y-103700000D01*
X106600000Y-100180000D02*
X106600000Y-101460000D01*
X106600000Y-103700000D02*
X106600000Y-102420000D01*
X155020000Y-110420000D02*
X155020000Y-111460000D01*
X155020000Y-113480000D02*
X155020000Y-112440000D01*
X156480000Y-110420000D02*
X155020000Y-110420000D01*
X156480000Y-111490000D02*
X156480000Y-112410000D01*
X156480000Y-113480000D02*
X155020000Y-113480000D01*
D12*
X127450000Y-114870000D02*
X127450000Y-133870000D01*
X127450000Y-114870000D02*
X177850000Y-114870000D01*
X127450000Y-133870000D02*
X177850000Y-133870000D01*
D14*
X131230000Y-128660000D02*
X131790000Y-125540000D01*
X132050000Y-123450000D02*
X132610000Y-120330000D01*
X135600000Y-129750000D02*
X131950000Y-129750000D01*
X136420000Y-124550000D02*
X132760000Y-124550000D01*
X136590000Y-128840000D02*
X137150000Y-125710000D01*
X137180000Y-119340000D02*
X133520000Y-119340000D01*
X137410000Y-123630000D02*
X137970000Y-120510000D01*
X142720000Y-128810000D02*
X143270000Y-125690000D01*
X143530000Y-123610000D02*
X144090000Y-120480000D01*
X147080000Y-129910000D02*
X143430000Y-129910000D01*
X147900000Y-124700000D02*
X144240000Y-124700000D01*
X148070000Y-128990000D02*
X148630000Y-125870000D01*
X148660000Y-119490000D02*
X145000000Y-119490000D01*
X148890000Y-123780000D02*
X149450000Y-120660000D01*
X155570000Y-128810000D02*
X156130000Y-125690000D01*
X156380000Y-123610000D02*
X156940000Y-120480000D01*
X159940000Y-129910000D02*
X156280000Y-129910000D01*
X160750000Y-124700000D02*
X157090000Y-124700000D01*
X160930000Y-128990000D02*
X161490000Y-125870000D01*
X161510000Y-119490000D02*
X157850000Y-119490000D01*
X161740000Y-123780000D02*
X162300000Y-120660000D01*
X167580000Y-128710000D02*
X168140000Y-125590000D01*
X168390000Y-123500000D02*
X168950000Y-120380000D01*
X171950000Y-129800000D02*
X168290000Y-129800000D01*
X172760000Y-124600000D02*
X169110000Y-124600000D01*
X172940000Y-128890000D02*
X173500000Y-125760000D01*
X173530000Y-119390000D02*
X169870000Y-119390000D01*
X173750000Y-123680000D02*
X174310000Y-120560000D01*
D12*
X177850000Y-114870000D02*
X177850000Y-133870000D01*
D14*
X138970000Y-129400000D02*
G75*
G02*
X138960001Y-129400167I10J-300000D01*
G01*
X150530000Y-129380000D02*
G75*
G02*
X150520001Y-129380167I10J-300000D01*
G01*
X163560000Y-129400000D02*
G75*
G02*
X163550001Y-129400167I0J-300000D01*
G01*
X175240001Y-129300000D02*
X175240001Y-129300000D01*
X175240001Y-129300000D01*
X175240001Y-129300000D01*
X175240001Y-129300000D01*
X175240001Y-129300000D01*
X175240001Y-129300001D01*
X175240001Y-129300001D01*
X175240001Y-129300001D01*
X175240001Y-129300001D01*
X175240001Y-129300001D01*
X175240001Y-129300001D01*
X175240001Y-129300001D01*
X175240000Y-129300001D01*
X175240000Y-129300001D01*
X175240000Y-129300001D01*
X175240000Y-129300001D01*
X175240000Y-129300001D01*
X175240000Y-129300001D01*
X175240000Y-129300001D01*
X175240000Y-129300001D01*
X175240000Y-129300001D01*
X175240000Y-129300001D01*
X175240000Y-129300001D01*
X175240000Y-129300001D01*
X175239999Y-129300001D01*
X175239999Y-129300001D01*
X175239999Y-129300001D01*
X175239999Y-129300001D01*
X175239999Y-129300001D01*
X175239999Y-129300001D01*
X175239999Y-129300000D01*
X175239999Y-129300000D01*
X175239999Y-129300000D01*
X175239999Y-129300000D01*
X175239999Y-129300000D01*
X175239999Y-129300000D01*
X175239999Y-129300000D02*
X175239999Y-129300000D01*
X175239999Y-129300000D01*
X175239999Y-129300000D01*
X175239999Y-129300000D01*
X175239999Y-129300000D01*
X175239999Y-129300000D01*
X175239999Y-129299999D01*
X175239999Y-129299999D01*
X175239999Y-129299999D01*
X175239999Y-129299999D01*
X175239999Y-129299999D01*
X175240000Y-129299999D01*
X175240000Y-129299999D01*
X175240000Y-129299999D01*
X175240000Y-129299999D01*
X175240000Y-129299999D01*
X175240000Y-129299999D01*
X175240000Y-129299999D01*
X175240000Y-129299999D01*
X175240000Y-129299999D01*
X175240000Y-129299999D01*
X175240000Y-129299999D01*
X175240000Y-129299999D01*
X175240001Y-129299999D01*
X175240001Y-129299999D01*
X175240001Y-129299999D01*
X175240001Y-129299999D01*
X175240001Y-129299999D01*
X175240001Y-129299999D01*
X175240001Y-129300000D01*
X175240001Y-129300000D01*
X175240001Y-129300000D01*
X175240001Y-129300000D01*
X175240001Y-129300000D01*
X175240001Y-129300000D01*
X175240001Y-129300000D01*
D12*
X98480000Y-102770000D02*
X103480000Y-102770000D01*
X98480000Y-103620000D02*
X98480000Y-102770000D01*
X98480000Y-104880000D02*
X98480000Y-105750000D01*
X98480000Y-105750000D02*
X103480000Y-105750000D01*
X103480000Y-105750000D02*
X103480000Y-102770000D01*
X98480000Y-103620000D02*
G75*
G02*
X98485182Y-104879073I-109999J-630000D01*
G01*
D15*
X99220000Y-105270000D02*
G75*
G02*
X98920000Y-105270000I-150000J0D01*
G01*
X98920000Y-105270000D02*
G75*
G02*
X99220000Y-105270000I150000J0D01*
G01*
D11*
X154892500Y-134990000D02*
X154892500Y-136270000D01*
X154892500Y-138510000D02*
X154892500Y-137230000D01*
X156732500Y-134990000D02*
X154892500Y-134990000D01*
X156732500Y-136270000D02*
X156732500Y-134990000D01*
X156732500Y-137230000D02*
X156732500Y-138510000D01*
X156732500Y-138510000D02*
X154892500Y-138510000D01*
X159770000Y-110420000D02*
X159770000Y-111460000D01*
X159770000Y-113480000D02*
X159770000Y-112440000D01*
X161230000Y-110420000D02*
X159770000Y-110420000D01*
X161230000Y-111490000D02*
X161230000Y-112410000D01*
X161230000Y-113480000D02*
X159770000Y-113480000D01*
X113240000Y-104830000D02*
X114520000Y-104830000D01*
X113240000Y-106670000D02*
X113240000Y-104830000D01*
X114520000Y-106670000D02*
X113240000Y-106670000D01*
X115480000Y-106670000D02*
X116760000Y-106670000D01*
X116760000Y-104830000D02*
X115480000Y-104830000D01*
X116760000Y-106670000D02*
X116760000Y-104830000D01*
D13*
X104045000Y-90820000D02*
X105425000Y-90820000D01*
X104045000Y-92200000D02*
X104045000Y-90820000D01*
X104045000Y-93470000D02*
X104045000Y-93580000D01*
X104045000Y-93470000D02*
X106695000Y-93470000D01*
X104045000Y-93580000D02*
X109345000Y-93580000D01*
X106695000Y-90820000D02*
X109345000Y-90820000D01*
X106695000Y-93470000D02*
X106695000Y-90820000D01*
X109345000Y-90820000D02*
X109345000Y-93580000D01*
D12*
X96680000Y-90450000D02*
X96680000Y-95150000D01*
X97570000Y-95150000D02*
X96680000Y-95150000D01*
X97570000Y-95150000D02*
X101630000Y-95150000D01*
X101630000Y-95150000D02*
X102530000Y-95150000D01*
X102530000Y-90450000D02*
X96680000Y-90450000D01*
X102530000Y-95150000D02*
X102530000Y-90450000D01*
X83350000Y-99850000D02*
X91250000Y-99850000D01*
X83350000Y-101150000D02*
X83350000Y-99850000D01*
X83350000Y-105650000D02*
X83350000Y-101150000D01*
X84650000Y-103250000D02*
X89750000Y-103250000D01*
X84650000Y-104750000D02*
X84650000Y-103250000D01*
X85350000Y-107650000D02*
X83350000Y-105650000D01*
X89350000Y-107650000D02*
X85350000Y-107650000D01*
X89750000Y-103250000D02*
X89750000Y-104750000D01*
X89750000Y-104750000D02*
X84650000Y-104750000D01*
X91250000Y-99850000D02*
X91250000Y-105750000D01*
X91250000Y-105750000D02*
X89350000Y-107650000D01*
D16*
X90850000Y-99250000D02*
G75*
G02*
X90450000Y-99250000I-200000J0D01*
G01*
X90450000Y-99250000D02*
G75*
G02*
X90850000Y-99250000I200000J0D01*
G01*
D12*
X91300000Y-96330000D02*
X91300000Y-95320000D01*
X91810000Y-95820000D02*
X90790000Y-95820000D01*
X93180000Y-94300000D02*
G75*
G02*
X86880000Y-94300000I-3150000J0D01*
G01*
X86880000Y-94300000D02*
G75*
G02*
X93180000Y-94300000I3150000J0D01*
G01*
D11*
X131270000Y-110470000D02*
X132730000Y-110470000D01*
X131270000Y-112460000D02*
X131270000Y-111540000D01*
X131270000Y-113530000D02*
X132730000Y-113530000D01*
X132730000Y-110470000D02*
X132730000Y-111510000D01*
X132730000Y-113530000D02*
X132730000Y-112490000D01*
X144490000Y-93960000D02*
X145770000Y-93960000D01*
X144490000Y-95800000D02*
X144490000Y-93960000D01*
X145770000Y-95800000D02*
X144490000Y-95800000D01*
X146730000Y-95800000D02*
X148010000Y-95800000D01*
X148010000Y-93960000D02*
X146730000Y-93960000D01*
X148010000Y-95800000D02*
X148010000Y-93960000D01*
D12*
X151360000Y-93610000D02*
X152160000Y-93610000D01*
X151740000Y-93230000D02*
X151740000Y-93990000D01*
X155300000Y-93550000D02*
X155300000Y-96480000D01*
X155300000Y-96480000D02*
G75*
G02*
X155303696Y-93546430I-2550000J1470000D01*
G01*
D13*
X81370000Y-138580000D02*
X81370000Y-137200000D01*
X82750000Y-138580000D02*
X81370000Y-138580000D01*
X84020000Y-135820000D02*
X119690000Y-135820000D01*
X84020000Y-138580000D02*
X84020000Y-135820000D01*
X84020000Y-138580000D02*
X119690000Y-138580000D01*
X119690000Y-138580000D02*
X119690000Y-135820000D01*
D11*
X159580000Y-134990000D02*
X159580000Y-136270000D01*
X159580000Y-138510000D02*
X159580000Y-137230000D01*
X161420000Y-134990000D02*
X159580000Y-134990000D01*
X161420000Y-136270000D02*
X161420000Y-134990000D01*
X161420000Y-137230000D02*
X161420000Y-138510000D01*
X161420000Y-138510000D02*
X159580000Y-138510000D01*
X140830000Y-134990000D02*
X140830000Y-136270000D01*
X140830000Y-138510000D02*
X140830000Y-137230000D01*
X142670000Y-134990000D02*
X140830000Y-134990000D01*
X142670000Y-136270000D02*
X142670000Y-134990000D01*
X142670000Y-137230000D02*
X142670000Y-138510000D01*
X142670000Y-138510000D02*
X140830000Y-138510000D01*
D13*
X110820000Y-93580000D02*
X110820000Y-92200000D01*
X112200000Y-93580000D02*
X110820000Y-93580000D01*
X113470000Y-90820000D02*
X118660000Y-90820000D01*
X113470000Y-93580000D02*
X113470000Y-90820000D01*
X113470000Y-93580000D02*
X118660000Y-93580000D01*
X118660000Y-93580000D02*
X118660000Y-90820000D01*
D11*
X140970000Y-110420000D02*
X142430000Y-110420000D01*
X140970000Y-112410000D02*
X140970000Y-111490000D01*
X140970000Y-113480000D02*
X142430000Y-113480000D01*
X142430000Y-110420000D02*
X142430000Y-111460000D01*
X142430000Y-113480000D02*
X142430000Y-112440000D01*
X145517500Y-134990000D02*
X145517500Y-136270000D01*
X145517500Y-138510000D02*
X145517500Y-137230000D01*
X147357500Y-134990000D02*
X145517500Y-134990000D01*
X147357500Y-136270000D02*
X147357500Y-134990000D01*
X147357500Y-137230000D02*
X147357500Y-138510000D01*
X147357500Y-138510000D02*
X145517500Y-138510000D01*
D12*
X126257724Y-98480000D02*
X126257724Y-94530000D01*
X128967724Y-94330000D02*
G75*
G02*
X129018946Y-98640635I-1210000J-2170000D01*
G01*
D11*
X117990000Y-104830000D02*
X117990000Y-106670000D01*
X117990000Y-106670000D02*
X119270000Y-106670000D01*
X119270000Y-104830000D02*
X117990000Y-104830000D01*
X120230000Y-104830000D02*
X121510000Y-104830000D01*
X121510000Y-104830000D02*
X121510000Y-106670000D01*
X121510000Y-106670000D02*
X120230000Y-106670000D01*
X164240000Y-111830000D02*
X164240000Y-113670000D01*
X164240000Y-113670000D02*
X165520000Y-113670000D01*
X165520000Y-111830000D02*
X164240000Y-111830000D01*
X166480000Y-111830000D02*
X167760000Y-111830000D01*
X167760000Y-111830000D02*
X167760000Y-113670000D01*
X167760000Y-113670000D02*
X166480000Y-113670000D01*
X163770000Y-136020000D02*
X164810000Y-136020000D01*
X163770000Y-137480000D02*
X163770000Y-136020000D01*
X165760000Y-137480000D02*
X164840000Y-137480000D01*
X166830000Y-136020000D02*
X165790000Y-136020000D01*
X166830000Y-137480000D02*
X166830000Y-136020000D01*
%LPC*%
D17*
X109500000Y-98250000D03*
X109500000Y-96250000D03*
D18*
X107750000Y-105820000D03*
X105750000Y-105820000D03*
X102940000Y-98270000D03*
X104940000Y-98270000D03*
X97690000Y-98270000D03*
X99690000Y-98270000D03*
D17*
X95250000Y-105000000D03*
X95250000Y-103000000D03*
D19*
X151125000Y-137750000D03*
X151125000Y-135750000D03*
D20*
X169700000Y-103000000D03*
D21*
X169700000Y-105000000D03*
X169700000Y-107000000D03*
X164700000Y-103000000D03*
X164700000Y-105000000D03*
X164700000Y-107000000D03*
D19*
X146950000Y-110750000D03*
X146950000Y-112750000D03*
D20*
X155150000Y-103000000D03*
D21*
X155150000Y-105000000D03*
X155150000Y-107000000D03*
X150150000Y-103000000D03*
X150150000Y-105000000D03*
X150150000Y-107000000D03*
D20*
X140600000Y-103000000D03*
D21*
X140600000Y-105000000D03*
X140600000Y-107000000D03*
X135600000Y-103000000D03*
X135600000Y-105000000D03*
X135600000Y-107000000D03*
D19*
X151250000Y-110750000D03*
X151250000Y-112750000D03*
D22*
X116350000Y-98250000D03*
X119750000Y-98250000D03*
D23*
X82750000Y-111800000D03*
D24*
X85290000Y-111800000D03*
X87830000Y-111800000D03*
X90370000Y-111800000D03*
X92910000Y-111800000D03*
X95450000Y-111800000D03*
X97990000Y-111800000D03*
X100530000Y-111800000D03*
X103070000Y-111800000D03*
X105610000Y-111800000D03*
X108150000Y-111800000D03*
X110690000Y-111800000D03*
X113230000Y-111800000D03*
X115770000Y-111800000D03*
X118310000Y-111800000D03*
D19*
X105680000Y-100970000D03*
X105680000Y-102910000D03*
D25*
X156750000Y-112900000D03*
X156750000Y-111000000D03*
X154750000Y-111950000D03*
D26*
X146300000Y-131990000D03*
X148840000Y-131990000D03*
X151380000Y-131990000D03*
X153920000Y-131990000D03*
X156460000Y-131990000D03*
X159000000Y-131990000D03*
X159000000Y-116750000D03*
X156460000Y-116750000D03*
X153920000Y-116750000D03*
X151380000Y-116750000D03*
X148840000Y-116750000D03*
X146300000Y-116750000D03*
D27*
X99070000Y-106930000D03*
X100350000Y-106930000D03*
X101610000Y-106930000D03*
X102880000Y-106930000D03*
X102880000Y-101570000D03*
X101610000Y-101570000D03*
X100350000Y-101570000D03*
X99070000Y-101570000D03*
D19*
X155812500Y-137750000D03*
X155812500Y-135750000D03*
D25*
X161500000Y-112900000D03*
X161500000Y-111000000D03*
X159500000Y-111950000D03*
D28*
X114000000Y-105750000D03*
X116000000Y-105750000D03*
D23*
X105425000Y-92200000D03*
D24*
X107965000Y-92200000D03*
D20*
X98600000Y-93500000D03*
D21*
X100600000Y-93500000D03*
D29*
X89750000Y-101250000D03*
D30*
X87250000Y-106250000D03*
X84750000Y-101250000D03*
D21*
X91300000Y-94300000D03*
X88760000Y-94300000D03*
D25*
X131000000Y-111050000D03*
X131000000Y-112950000D03*
X133000000Y-112000000D03*
D28*
X145250000Y-94880000D03*
X147250000Y-94880000D03*
D21*
X154030000Y-95010000D03*
D20*
X151490000Y-95010000D03*
D23*
X82750000Y-137200000D03*
D24*
X85290000Y-137200000D03*
X87830000Y-137200000D03*
X90370000Y-137200000D03*
X92910000Y-137200000D03*
X95450000Y-137200000D03*
X97990000Y-137200000D03*
X100530000Y-137200000D03*
X103070000Y-137200000D03*
X105610000Y-137200000D03*
X108150000Y-137200000D03*
X110690000Y-137200000D03*
X113230000Y-137200000D03*
X115770000Y-137200000D03*
X118310000Y-137200000D03*
D19*
X160500000Y-137750000D03*
X160500000Y-135750000D03*
X141750000Y-137750000D03*
X141750000Y-135750000D03*
D23*
X112200000Y-92200000D03*
D24*
X114740000Y-92200000D03*
X117280000Y-92200000D03*
D25*
X140700000Y-111000000D03*
X140700000Y-112900000D03*
X142700000Y-111950000D03*
D19*
X146437500Y-137750000D03*
X146437500Y-135750000D03*
D31*
X127757724Y-93960000D03*
D32*
X127757724Y-96500000D03*
X127757724Y-99040000D03*
D28*
X120750000Y-105750000D03*
X118750000Y-105750000D03*
X167000000Y-112750000D03*
X165000000Y-112750000D03*
D33*
X164350000Y-137750000D03*
X166250000Y-137750000D03*
X165300000Y-135750000D03*
%LPD*%
M02*
