G04 #@! TF.GenerationSoftware,KiCad,Pcbnew,9.0.1*
G04 #@! TF.CreationDate,2025-05-01T12:24:31+02:00*
G04 #@! TF.ProjectId,despertador,64657370-6572-4746-9164-6f722e6b6963,rev?*
G04 #@! TF.SameCoordinates,Original*
G04 #@! TF.FileFunction,Soldermask,Bot*
G04 #@! TF.FilePolarity,Negative*
%FSLAX46Y46*%
G04 Gerber Fmt 4.6, Leading zero omitted, Abs format (unit mm)*
G04 Created by KiCad (PCBNEW 9.0.1) date 2025-05-01 12:24:31*
%MOMM*%
%LPD*%
G01*
G04 APERTURE LIST*
%ADD10R,1.600000X1.600000*%
%ADD11C,1.600000*%
%ADD12C,1.520000*%
%ADD13R,1.700000X1.700000*%
%ADD14C,1.700000*%
%ADD15C,1.550000*%
%ADD16R,2.200000X2.100000*%
%ADD17C,2.200000*%
%ADD18R,1.800000X1.800000*%
%ADD19O,1.800000X1.800000*%
G04 APERTURE END LIST*
D10*
X169700000Y-103000000D03*
D11*
X169700000Y-105000000D03*
X169700000Y-107000000D03*
X164700000Y-103000000D03*
X164700000Y-105000000D03*
X164700000Y-107000000D03*
D10*
X155150000Y-103000000D03*
D11*
X155150000Y-105000000D03*
X155150000Y-107000000D03*
X150150000Y-103000000D03*
X150150000Y-105000000D03*
X150150000Y-107000000D03*
D10*
X140600000Y-103000000D03*
D11*
X140600000Y-105000000D03*
X140600000Y-107000000D03*
X135600000Y-103000000D03*
X135600000Y-105000000D03*
X135600000Y-107000000D03*
D12*
X116350000Y-98250000D03*
X119750000Y-98250000D03*
D13*
X82750000Y-111800000D03*
D14*
X85290000Y-111800000D03*
X87830000Y-111800000D03*
X90370000Y-111800000D03*
X92910000Y-111800000D03*
X95450000Y-111800000D03*
X97990000Y-111800000D03*
X100530000Y-111800000D03*
X103070000Y-111800000D03*
X105610000Y-111800000D03*
X108150000Y-111800000D03*
X110690000Y-111800000D03*
X113230000Y-111800000D03*
X115770000Y-111800000D03*
X118310000Y-111800000D03*
D15*
X146300000Y-131990000D03*
X148840000Y-131990000D03*
X151380000Y-131990000D03*
X153920000Y-131990000D03*
X156460000Y-131990000D03*
X159000000Y-131990000D03*
X159000000Y-116750000D03*
X156460000Y-116750000D03*
X153920000Y-116750000D03*
X151380000Y-116750000D03*
X148840000Y-116750000D03*
X146300000Y-116750000D03*
D13*
X105425000Y-92200000D03*
D14*
X107965000Y-92200000D03*
D10*
X98600000Y-93500000D03*
D11*
X100600000Y-93500000D03*
D16*
X89750000Y-101250000D03*
D17*
X87250000Y-106250000D03*
X84750000Y-101250000D03*
D11*
X91300000Y-94300000D03*
X88760000Y-94300000D03*
X154030000Y-95010000D03*
D10*
X151490000Y-95010000D03*
D13*
X82750000Y-137200000D03*
D14*
X85290000Y-137200000D03*
X87830000Y-137200000D03*
X90370000Y-137200000D03*
X92910000Y-137200000D03*
X95450000Y-137200000D03*
X97990000Y-137200000D03*
X100530000Y-137200000D03*
X103070000Y-137200000D03*
X105610000Y-137200000D03*
X108150000Y-137200000D03*
X110690000Y-137200000D03*
X113230000Y-137200000D03*
X115770000Y-137200000D03*
X118310000Y-137200000D03*
D13*
X112200000Y-92200000D03*
D14*
X114740000Y-92200000D03*
X117280000Y-92200000D03*
D18*
X127757724Y-93960000D03*
D19*
X127757724Y-96500000D03*
X127757724Y-99040000D03*
M02*
