G04 #@! TF.GenerationSoftware,KiCad,Pcbnew,9.0.1*
G04 #@! TF.CreationDate,2025-05-01T12:24:31+02:00*
G04 #@! TF.ProjectId,despertador,64657370-6572-4746-9164-6f722e6b6963,rev?*
G04 #@! TF.SameCoordinates,Original*
G04 #@! TF.FileFunction,Paste,Top*
G04 #@! TF.FilePolarity,Positive*
%FSLAX46Y46*%
G04 Gerber Fmt 4.6, Leading zero omitted, Abs format (unit mm)*
G04 Created by KiCad (PCBNEW 9.0.1) date 2025-05-01 12:24:31*
%MOMM*%
%LPD*%
G01*
G04 APERTURE LIST*
%ADD10R,1.350000X1.410000*%
%ADD11R,1.410000X1.350000*%
%ADD12R,1.380000X1.130000*%
%ADD13R,1.250000X0.700000*%
%ADD14O,0.630000X1.860000*%
%ADD15R,1.130000X1.380000*%
%ADD16R,0.700000X1.250000*%
G04 APERTURE END LIST*
D10*
X109500000Y-98250000D03*
X109500000Y-96250000D03*
D11*
X107750000Y-105820000D03*
X105750000Y-105820000D03*
X102940000Y-98270000D03*
X104940000Y-98270000D03*
X97690000Y-98270000D03*
X99690000Y-98270000D03*
D10*
X95250000Y-105000000D03*
X95250000Y-103000000D03*
D12*
X151125000Y-137750000D03*
X151125000Y-135750000D03*
X146950000Y-110750000D03*
X146950000Y-112750000D03*
X151250000Y-110750000D03*
X151250000Y-112750000D03*
X105680000Y-100970000D03*
X105680000Y-102910000D03*
D13*
X156750000Y-112900000D03*
X156750000Y-111000000D03*
X154750000Y-111950000D03*
D14*
X99070000Y-106930000D03*
X100350000Y-106930000D03*
X101610000Y-106930000D03*
X102880000Y-106930000D03*
X102880000Y-101570000D03*
X101610000Y-101570000D03*
X100350000Y-101570000D03*
X99070000Y-101570000D03*
D12*
X155812500Y-137750000D03*
X155812500Y-135750000D03*
D13*
X161500000Y-112900000D03*
X161500000Y-111000000D03*
X159500000Y-111950000D03*
D15*
X114000000Y-105750000D03*
X116000000Y-105750000D03*
D13*
X131000000Y-111050000D03*
X131000000Y-112950000D03*
X133000000Y-112000000D03*
D15*
X145250000Y-94880000D03*
X147250000Y-94880000D03*
D12*
X160500000Y-137750000D03*
X160500000Y-135750000D03*
X141750000Y-137750000D03*
X141750000Y-135750000D03*
D13*
X140700000Y-111000000D03*
X140700000Y-112900000D03*
X142700000Y-111950000D03*
D12*
X146437500Y-137750000D03*
X146437500Y-135750000D03*
D15*
X120750000Y-105750000D03*
X118750000Y-105750000D03*
X167000000Y-112750000D03*
X165000000Y-112750000D03*
D16*
X164350000Y-137750000D03*
X166250000Y-137750000D03*
X165300000Y-135750000D03*
M02*
