M48
; DRILL file {KiCad 9.0.1} date 2025-05-01T12:24:37+0200
; FORMAT={-:-/ absolute / metric / decimal}
; #@! TF.CreationDate,2025-05-01T12:24:37+02:00
; #@! TF.GenerationSoftware,Kicad,Pcbnew,9.0.1
; #@! TF.FileFunction,Plated,1,2,PTH
FMAT,2
METRIC
; #@! TA.AperFunction,Plated,PTH,ViaDrill
T1C0.300
; #@! TA.AperFunction,Plated,PTH,ComponentDrill
T2C0.762
; #@! TA.AperFunction,Plated,PTH,ComponentDrill
T3C0.900
; #@! TA.AperFunction,Plated,PTH,ComponentDrill
T4C1.000
; #@! TA.AperFunction,Plated,PTH,ComponentDrill
T5C1.000
%
G90
G05
T1
X90.0Y-115.0
X96.9Y-131.25
X97.1Y-122.3
X97.274Y-116.491
X97.34Y-115.65
X99.5Y-96.4
X100.831Y-131.25
X101.3Y-108.5
X101.5Y-100.0
X101.9Y-131.1
X103.9Y-125.7
X105.449Y-132.9
X109.25Y-108.25
X111.0Y-106.5
X112.0Y-103.75
X117.5Y-126.5
X119.25Y-94.0
X120.1Y-117.2
X120.25Y-109.25
X121.75Y-111.0
X122.85Y-105.769
X123.0Y-108.75
X123.5Y-95.5
X123.5Y-100.0
X123.858Y-118.471
X124.1Y-108.749
X124.25Y-117.75
X124.272Y-99.79
X124.3Y-111.2
X125.47Y-108.47
X126.75Y-109.5
X126.847Y-117.847
X127.0Y-110.4
X128.6Y-106.25
X129.55Y-131.05
X129.9Y-109.5
X130.0Y-105.0
X130.25Y-118.526
X130.5Y-99.75
X130.5Y-100.75
X135.25Y-136.888
X135.3Y-131.05
X136.14Y-136.86
X137.5Y-91.75
X138.5Y-137.75
X143.0Y-105.5
X144.0Y-112.25
X144.0Y-137.75
X146.0Y-99.5
X146.8Y-109.5
X148.5Y-138.25
X153.5Y-138.25
X155.5Y-114.25
X161.6Y-113.6
X162.5Y-136.75
T2
X116.35Y-98.25
X119.75Y-98.25
T3
X146.3Y-116.75
X146.3Y-131.99
X148.84Y-116.75
X148.84Y-131.99
X151.38Y-116.75
X151.38Y-131.99
X153.92Y-116.75
X153.92Y-131.99
X156.46Y-116.75
X156.46Y-131.99
X159.0Y-116.75
X159.0Y-131.99
T4
X84.75Y-101.25
X87.25Y-106.25
X88.76Y-94.3
X89.75Y-101.25
X91.3Y-94.3
X98.6Y-93.5
X100.6Y-93.5
X127.758Y-93.96
X127.758Y-96.5
X127.758Y-99.04
X135.6Y-103.0
X135.6Y-105.0
X135.6Y-107.0
X140.6Y-103.0
X140.6Y-105.0
X140.6Y-107.0
X150.15Y-103.0
X150.15Y-105.0
X150.15Y-107.0
X151.49Y-95.01
X154.03Y-95.01
X155.15Y-103.0
X155.15Y-105.0
X155.15Y-107.0
X164.7Y-103.0
X164.7Y-105.0
X164.7Y-107.0
X169.7Y-103.0
X169.7Y-105.0
X169.7Y-107.0
T5
X82.75Y-111.8
X82.75Y-137.2
X85.29Y-111.8
X85.29Y-137.2
X87.83Y-111.8
X87.83Y-137.2
X90.37Y-111.8
X90.37Y-137.2
X92.91Y-111.8
X92.91Y-137.2
X95.45Y-111.8
X95.45Y-137.2
X97.99Y-111.8
X97.99Y-137.2
X100.53Y-111.8
X100.53Y-137.2
X103.07Y-111.8
X103.07Y-137.2
X105.425Y-92.2
X105.61Y-111.8
X105.61Y-137.2
X107.965Y-92.2
X108.15Y-111.8
X108.15Y-137.2
X110.69Y-111.8
X110.69Y-137.2
X112.2Y-92.2
X113.23Y-111.8
X113.23Y-137.2
X114.74Y-92.2
X115.77Y-111.8
X115.77Y-137.2
X117.28Y-92.2
X118.31Y-111.8
X118.31Y-137.2
M30
